<svg xmlns="http://www.w3.org/2000/svg" viewBox="0 0 82.37 67.09"><defs><style>.cls-1{isolation:isolate;}.cls-2{fill:#074ea3;}.cls-3{fill:#090028;}.cls-4{fill:#d0d1de;}.cls-5{fill:#110239;}.cls-6{fill:#e5e6ed;}.cls-7{fill:#fbb040;}.cls-8{fill:#f88667;}.cls-9{fill:#e87503;}.cls-10{fill:#00547a;mix-blend-mode:multiply;opacity:0.52;}.cls-11{fill:#e45940;}</style></defs><g class="cls-1"><g id="Layer_2" data-name="Layer 2"><g id="Layer_1-2" data-name="Layer 1"><path class="cls-2" d="M29.92,36.11l-.27,28.27c0,1.47-.43,2.32-2.53,2.59-2.61.34-3.4-.12-3.79-.84-.73-1.35-7.85-28.37-9-30.21S29.92,36.11,29.92,36.11Z"/><path class="cls-3" d="M29.86,42.2l.06-6.09s-16.79-2-15.61-.19c.27.44,1.37,3.92,2.19,6.62Z"/><path class="cls-4" d="M3.48,26.37A3.16,3.16,0,0,0,.36,28.82,14.88,14.88,0,0,0,0,32.11a8.48,8.48,0,0,0,.5,3.54,3.1,3.1,0,0,0,2.75,1.77c5.74.21,26.41,1,30.72,2,5,1.18,21.82,8.64,21.82,8.64l-3.2-37.8S37.15,22.81,27.35,24.75C19.72,26.26,8.21,26.39,3.48,26.37Z"/><path class="cls-5" d="M14,37.87c2.14.11,4.37.22,6.55.35a25.63,25.63,0,0,1-.13-12.52c-2.18.21-4.42.35-6.56.45A23.07,23.07,0,0,0,14,37.87Z"/><path class="cls-6" d="M72.2,27.93c.1,13.67-6.41,24.8-14.54,24.86s-14.82-11-14.93-24.63S49.13,3.37,57.27,3.3,72.09,14.27,72.2,27.93Z"/><path class="cls-5" d="M71.1,27.94c.09,11.63-5.45,21.1-12.37,21.15s-12.61-9.33-12.7-21S51.48,7,58.4,7,71,16.31,71.1,27.94Z"/><path class="cls-7" d="M55.91,30.08c.3-4.14-2.41-7.71-6-8a6,6,0,0,0-3.47.85A34.82,34.82,0,0,0,46,28.14a33.53,33.53,0,0,0,1.18,8.61,5.51,5.51,0,0,0,1.57.35C52.42,37.37,55.62,34.22,55.91,30.08Z"/><path class="cls-8" d="M34,15a1.94,1.94,0,0,1,.16-1.27c-.21,0-.53.07-.51-.06s.06-.41-.06-.38a.81.81,0,0,0-.32.16,1.53,1.53,0,0,1-.74.18c-.08.29-.33.73-.17,1,.08.16.51.09.7.16A3.47,3.47,0,0,0,34,15Z"/><path class="cls-7" d="M28,1.61a9.78,9.78,0,0,0-4.28,1.06l1.15,5a5.21,5.21,0,0,1,2.79-.61Z"/><path class="cls-9" d="M26.79,4.23c0-.83.06-1.66.08-2.5A7.36,7.36,0,0,1,28,1.61l-.34,5.45c-.46-.72-.69-.56-.78-.65C26.87,5.69,26.78,5,26.79,4.23Z"/><path class="cls-7" d="M37.94,1.87S31.42-.69,27.15.18l-.28,6.23s3.79-.84,9,1.46Z"/><rect class="cls-5" x="27.54" y="8.96" width="15.63" height="0.56" transform="translate(15.03 39.61) rotate(-70.85)"/><path class="cls-2" d="M32.91,15V13.23s-5.27,0-7.48-.59-5.16-3.23-6.34-2.81-1.93,1.62-.46,2.76,4.93,2.14,6.43,2.37C26.1,15.12,32.08,15,32.91,15Z"/><path class="cls-10" d="M24.1,13.89a16.7,16.7,0,0,1-5.11-4c-1.12.45-1.78,1.61-.36,2.72s4.93,2.14,6.43,2.37c.51.08,2.22.09,3.92.08A17.13,17.13,0,0,1,24.1,13.89Z"/><path class="cls-5" d="M24.05,35.43s-1,1.66-.87,2,3.72,2.47,4.2,2.31.58-.74-.06-1.31-1.14-.66-1.53-1.16,0-1.56,0-1.56Z"/><path class="cls-7" d="M18,21.34a2.24,2.24,0,0,0,1.48.49c.75-.1,8.11.67,8.87,1.29S26.05,36.2,26.05,36.2l-2.56-.42s.92-9.11.77-9.18-4-.05-10.61-.05c-1.61,0-3.41-3.38-1.37-5.74Z"/><path class="cls-8" d="M19.19,7.47A3.11,3.11,0,0,1,18.5,7a5.11,5.11,0,0,1-1.16,2.88,5.78,5.78,0,0,0,2.91.37,9.53,9.53,0,0,1,.12-2.64A2.8,2.8,0,0,1,19.19,7.47Z"/><path class="cls-11" d="M18.41,9.63a1.93,1.93,0,0,1,1.83-1.28,4.11,4.11,0,0,1,.13-.71,2.8,2.8,0,0,1-1.18-.17A3.11,3.11,0,0,1,18.5,7a5.11,5.11,0,0,1-1.16,2.88,5.9,5.9,0,0,0,.95.29A2.42,2.42,0,0,1,18.41,9.63Z"/><path class="cls-8" d="M18.73,3.15s1.89-.59,2.49-.22a2.7,2.7,0,0,1,1,2.23c-.11.68.68,1.48.7,1.73s-.6.34-.62.41-.05,1.33-.88,1.54A3.75,3.75,0,0,1,18.13,7.5C17.59,6.79,17,3.57,18.73,3.15Z"/><path class="cls-5" d="M22.25,3.23c-.1-.1-.35-.26-.42-.39a1.92,1.92,0,0,0-.14-.33c-.21-.3-.26-.53-1.12-.8a2.71,2.71,0,0,0-2.3.51,2.11,2.11,0,0,0-.55.64c0,.07-.17.28-.14.35s.32.17.4.22a3.57,3.57,0,0,1,.43.34c.86.7,2.21,1.45,3.15.48a4.59,4.59,0,0,0,.36-.41,2.58,2.58,0,0,1,.26,1.25,1.13,1.13,0,0,0,.39-.6A1.32,1.32,0,0,0,22.25,3.23Z"/><path class="cls-5" d="M18.26,3.17a1.62,1.62,0,0,0-.9,0,1.1,1.1,0,0,0-.85.95,5.27,5.27,0,0,0-.09.89,3.41,3.41,0,0,0,.23,1.34,3.15,3.15,0,0,0,.78,1.25c.34.3,1,.65,1.32.52A2.56,2.56,0,0,0,19,6.89c0-.23-.15-.23-.33-.33s-.63-.51-.41-.87c.31-.52.89-.28,1.1.43,0,0,.23.41.36.34A2.6,2.6,0,0,0,18.26,3.17Z"/><path class="cls-11" d="M18.5,5.76a.51.51,0,0,1,.56.15c.22.26.12.68-.11.53s-.13-.3-.17-.43A.42.42,0,0,0,18.5,5.76Z"/><path class="cls-2" d="M11.37,20.65S14,22.72,19.56,21.8A12.27,12.27,0,0,1,20,18.66a29.32,29.32,0,0,0,1.18-6.18,3.34,3.34,0,0,0-1-2.61s-1,1-2.59-.3a6.8,6.8,0,0,0-4.3,4A35.82,35.82,0,0,0,11.37,20.65Z"/><path class="cls-10" d="M18,12.17c-1.43,1.54-.05,5.34,1.75,7.46a9.05,9.05,0,0,1,.23-1c.25-.82.55-2.05.79-3.26A2.82,2.82,0,0,1,19.65,14C19.1,12.69,18.74,11.78,18,12.17Z"/><path class="cls-8" d="M29.59,22.78a1.55,1.55,0,0,0,.67.35.82.82,0,0,1,.35.08,1.42,1.42,0,0,0,.38.14.8.8,0,0,1,.36.17c.11.13-.1.17-.24.18s-.57-.26-.7-.15.4.41.51.46.43,0,.68,0,.22,0,.12.18-.23.11-.35.12a1.52,1.52,0,0,1-.73-.12,1.71,1.71,0,0,0,.67.18c.13,0,.71,0,.71.17,0,.42-1.27.15-1.46,0a2.05,2.05,0,0,0,.67.23c.14,0,.46.09.28.27s-.89-.17-1.2-.31a2.46,2.46,0,0,0,.57.34c.26.14.07.28-.22.19a4.32,4.32,0,0,1-.41-.19,2.26,2.26,0,0,1-1-1.07c-.1-.18-.48-.41-.44-.58C28.88,23.12,29.35,22.94,29.59,22.78Z"/><path class="cls-2" d="M30,22.52,28.91,24s-6.85-3-7.47-3.75A38.48,38.48,0,0,1,18.5,15.8c-.73-1.77-1.64-3.89,0-4.26.89-.2,1.47,0,2,1.34a36.75,36.75,0,0,0,3,5.48C23.79,18.7,30,22.52,30,22.52Z"/><path class="cls-8" d="M34.81,13.72c.09.15-.17.82-.43,1.09a.47.47,0,0,1-.63,0c-.22-.13-.47-.18-.5-.3,0-.5.41-.12.61-.05,0,0-.55-.28-.54-.51,0-.45.7.07.89.15a1.13,1.13,0,0,1-.53-.35.17.17,0,0,1,0-.26c.15-.13.73.28.73.28s-.53-.23-.36-.42.28,0,.38,0A.63.63,0,0,1,34.81,13.72Z"/><path class="cls-8" d="M33.51,13.7l.19-.06h0c0-.16.67-.21.81-.28.43-.23.25-.5.06-.44s-.44.14-.55.19a2.3,2.3,0,0,1-.45.05,2.85,2.85,0,0,0-.55.38C32.79,13.68,33.27,13.8,33.51,13.7Z"/><path class="cls-4" d="M81.41,18.75c.15.38-1.13,1.21-2.85,1.84s-3.23.83-3.37.45,1.14-1.22,2.86-1.85S81.27,18.36,81.41,18.75Z"/><path class="cls-4" d="M78.29,11c.16.38-1.07,1.27-2.75,2s-3.17,1-3.34.64,1.07-1.28,2.75-2S78.12,10.63,78.29,11Z"/><path class="cls-4" d="M80.6,39.41c-.12.39-1.64.27-3.39-.27s-3.06-1.3-2.94-1.69,1.64-.28,3.39.27S80.72,39,80.6,39.41Z"/><path class="cls-4" d="M77.42,47.78c-.15.38-1.65.14-3.35-.54s-2.95-1.55-2.8-1.93,1.65-.14,3.35.54S77.58,47.4,77.42,47.78Z"/><path class="cls-4" d="M82.37,29.18c0,.41-1.52.66-3.35.57s-3.3-.51-3.28-.92,1.52-.67,3.35-.57S82.39,28.76,82.37,29.18Z"/></g></g></g></svg>