<svg xmlns="http://www.w3.org/2000/svg" viewBox="0 0 67.23 59.18"><defs><style>.cls-1{fill:#110239;}.cls-2{fill:#e87503;}.cls-3{fill:#d0d1de;}.cls-4{fill:#9698b5;}.cls-5{fill:#fbb040;}.cls-6{fill:#fd425f;}.cls-7{fill:#fff;}.cls-8{fill:#e5e6ed;}.cls-9{fill:#9a94ab;}.cls-10{fill:#f88667;}.cls-11{fill:#e45940;}.cls-12{fill:#b8b9cd;}</style></defs><g id="Layer_2" data-name="Layer 2"><g id="Layer_1-2" data-name="Layer 1"><polygon class="cls-1" points="39.77 55.96 27.46 55.96 28.47 41.12 38.76 41.12 39.77 55.96"/><path class="cls-1" d="M41.38,53.58a.81.81,0,0,0-.67-.35H26.51a.81.81,0,0,0-.67.35L24,56.36a.8.8,0,0,0,.67,1.25H42.57a.8.8,0,0,0,.67-1.25Z"/><rect class="cls-1" width="67.23" height="45.06" rx="3.47"/><rect class="cls-2" x="3.1" y="2.99" width="61.03" height="38.63"/><rect class="cls-3" x="38.7" y="29.12" width="3.35" height="12.46"/><rect class="cls-4" x="38.7" y="29.12" width="3.35" height="3.9"/><path class="cls-5" d="M51.09,9.79H31.32v20.1H59V17.66A7.87,7.87,0,0,0,51.09,9.79Z"/><path class="cls-2" d="M39.26,29.89H23.37V17.66a7.87,7.87,0,0,1,7.87-7.87h.16a7.86,7.86,0,0,1,7.86,7.87Z"/><path class="cls-1" d="M37.9,28.17H24.73V18a6.52,6.52,0,0,1,6.52-6.52h.13A6.52,6.52,0,0,1,37.9,18Z"/><rect class="cls-6" x="18.14" y="28.34" width="15.07" height="1.55"/><path class="cls-7" d="M50.57,22.45c.47,0,.94-.76.94-1.85a3.64,3.64,0,0,0-3.78-3.89,3.92,3.92,0,0,0-3.91,3.92,3.67,3.67,0,0,0,3.77,3.73,3.79,3.79,0,0,0,2.16-.7l.53.92a4.9,4.9,0,0,1-2.69.85,4.75,4.75,0,0,1-4.91-4.8,5,5,0,0,1,5-5,4.77,4.77,0,0,1,4.91,4.89c0,1.72-.93,2.82-2.21,2.82a1.21,1.21,0,0,1-1.35-.88l0-.14a2.05,2.05,0,0,1-1.71.91,2.57,2.57,0,0,1-2.51-2.66,2.47,2.47,0,0,1,2.35-2.7,2,2,0,0,1,1.54.71V18h1.41v3.86C50.14,22.3,50.31,22.45,50.57,22.45Zm-4.18-1.9c0,.76.43,1.43,1.11,1.43s1.14-.65,1.14-1.42a1.14,1.14,0,1,0-2.25,0Z"/><path class="cls-8" d="M34.54,32.52c.11-3.13,2.24-5.78,3.36-7v-.66H27.57c-2.11,0-3.37,1.07-4.51,2.85a9.75,9.75,0,0,0-1.65,4.78c-.15,4.24.77,6.3-2,9.11s-4,4.42-3.18,9H29.37c-.82-4.59.41-6.19,3.17-9S34.38,36.76,34.54,32.52Z"/><path class="cls-9" d="M36.06,25.86H26.39l-.37.43h9.67Z"/><path class="cls-9" d="M34.54,27.88H24.87l-.26.43h9.67Z"/><path class="cls-9" d="M33.52,29.91H23.85c-.05.13-.1.28-.14.42h9.67C33.42,30.19,33.47,30,33.52,29.91Z"/><path class="cls-9" d="M33,31.93H23.35c0,.14,0,.28,0,.42H33C33,32.21,33,32.07,33,31.93Z"/><path class="cls-9" d="M33,34H23.29v.42H33Z"/><path class="cls-9" d="M33,36H23.33c0,.14,0,.29,0,.42H33C33,36.26,33,36.11,33,36Z"/><path class="cls-9" d="M32.91,38H23.24c0,.15,0,.29-.07.43h9.66C32.86,38.28,32.89,38.14,32.91,38Z"/><path class="cls-9" d="M32.23,40H22.56a3.78,3.78,0,0,1-.26.43H32A3.78,3.78,0,0,0,32.23,40Z"/><path class="cls-9" d="M30.59,42H20.92l-.4.42h9.67Z"/><path class="cls-9" d="M28.85,44.06H19.18l-.29.42h9.67Z"/><path class="cls-9" d="M27.84,46.08H18.17c0,.14-.08.28-.11.42h9.67C27.76,46.36,27.8,46.22,27.84,46.08Z"/><path class="cls-9" d="M27.56,48.1H17.89c0,.14,0,.28,0,.43h9.67C27.56,48.38,27.56,48.24,27.56,48.1Z"/><path class="cls-10" d="M22.61,29.44c-.09-.14-.63.31-.71.42a4.28,4.28,0,0,0-.4.53c-.09.19-.17.37-.27.55a1.86,1.86,0,0,0-.07.34,2.74,2.74,0,0,1-.29.44s0,.06-.06.11c.22.19.23.35.35.6a1.5,1.5,0,0,1,.27-.22c.09-.06.63-.26.72-.31a3.06,3.06,0,0,0,.53-.3c.05-.05.29-.12.26-.21s-.35-.08-.43-.07a1.64,1.64,0,0,1-.59.12c-.09,0-.23-.15-.17-.37a1,1,0,0,1,.34-.48c.09-.08.44-.41.54-.49.29-.25.16-.43-.1-.27-.05,0-.47.37-.51.39l.11-.12C22.29,29.91,22.71,29.6,22.61,29.44Z"/><path class="cls-10" d="M11.12,24.7l.06.11a6.25,6.25,0,0,0,.72,1c.17.18.45.33.59.51l.18.2A15.89,15.89,0,0,0,11.79,29S10,28.47,9.56,27.61A18.36,18.36,0,0,0,11.12,24.7Z"/><path class="cls-11" d="M11.4,27.87a2.63,2.63,0,0,0-.5-1.51,3.62,3.62,0,0,0-.36-.42,8.4,8.4,0,0,0,.58-1.24l.06.11a6.25,6.25,0,0,0,.72,1c.17.18.45.33.59.51l.18.2A15.89,15.89,0,0,0,11.79,29a6.84,6.84,0,0,1-.69-.26A1.33,1.33,0,0,0,11.4,27.87Z"/><path class="cls-1" d="M4.66,56.82s-.27,1.76,0,2,3.94.51,4.26.19.16-.88-.61-1.12-1.23,0-1.74-.27-.35-1-.35-1Z"/><path class="cls-1" d="M10.84,56.82s-.26,1.76,0,2,4,.51,4.27.19.15-.88-.61-1.12-1.24,0-1.75-.27-.35-1-.35-1Z"/><path class="cls-5" d="M4.07,46.88a54.45,54.45,0,0,1-.89-10.05A4.53,4.53,0,0,1,5,36.88c1.17.32,2.34.61,3.51.91A70.43,70.43,0,0,0,7,47.34c0,1.61-.43,10-.43,10l-2.12,0C4.22,56.15,4.15,47.31,4.07,46.88Z"/><path class="cls-2" d="M6.65,37.34c.62.18,1.25.3,1.87.42A76.05,76.05,0,0,0,7,47.3c-.41-.79-2-3.57-2.86-5.69a12,12,0,0,1-.9-4.47v0A8.61,8.61,0,0,1,6.65,37.34Z"/><path class="cls-5" d="M5.22,36.81c.79.23,2.22.55,3.3.89.82,1.84,3.1,6.75,3.54,8.71.6,2.72.6,10.83.6,10.83l-2.05,0S9.2,48.07,9,47.43c-1-2.58-2.83-4.36-3.54-5.58A15.23,15.23,0,0,1,3.3,36.41C3.92,36.56,4.56,36.62,5.22,36.81Z"/><path class="cls-3" d="M10.25,29.87c.44-.88.09-1.5,1-1.2,1.53.5,3,3.81,3.89,4,1.24.3,5.8-1.28,5.8-1.28l.47,1.16s-6,2.63-7,2.38-3.57-3.06-4.2-4A1,1,0,0,1,10.25,29.87Z"/><path class="cls-12" d="M10.25,29.87c.44-.88.09-1.5,1-1.2,1.53.5,3,3.81,3.89,4,1.24.3,5.8-1.28,5.8-1.28l.47,1.16s-6,2.63-7,2.38-3.57-3.06-4.2-4A1,1,0,0,1,10.25,29.87Z"/><path class="cls-3" d="M9.35,39a15.94,15.94,0,0,1-3.67-.68C4.35,37.92,3.2,37.17,3,36.6c0,0,2.1-5.49,3.56-7.37a4.52,4.52,0,0,1,3.16-1.91,5.7,5.7,0,0,0,2.15,1.25s-1,4.07-1.39,5.69S9.35,39,9.35,39Z"/><path class="cls-12" d="M8.92,32.86a7.74,7.74,0,0,1,.14-2.73l.26.21a6.11,6.11,0,0,0,1.59,1.23l.25.07c-.24,1-.49,2-.66,2.62C10.05,35.87,9.35,39,9.35,39s-.52,0-1.28-.13A14.33,14.33,0,0,0,8.92,32.86Z"/><path class="cls-10" d="M11.26,22.21s1.47-1,2.34-.46,1.36,1,1.28,1.45a11,11,0,0,0-.38,2c0,.49.26,1.23.16,1.39s-.64-.08-.71,0-1,1.06-1.25,1.08a4.27,4.27,0,0,1-1.58-2.3C11.14,24.63,10.67,23.08,11.26,22.21Z"/><path class="cls-1" d="M13,23.36c.13.31.58.85,1.78.95s2-2.31-.08-3.27-2.39-.2-2.85-.25a1.58,1.58,0,0,0-1.25.32,2.2,2.2,0,0,0-.69,2.71c.48,1.37,1.19,1.58,1.19,1.58.17-.23.39-.66.24-.91a1.47,1.47,0,0,1-.24-.35.45.45,0,0,1,.74-.45c.2.16.09.61.15.83s.16.24.25.25.53-.36.47-1C12.7,23.35,12.91,23.05,13,23.36Z"/><path class="cls-10" d="M18.73,39.19a2,2,0,0,1,.22.07.91.91,0,0,0,.49.12,2.09,2.09,0,0,1,.87.12c.12.07.85.57.52.82a.28.28,0,0,1-.19,0l-.26-.23a1.34,1.34,0,0,1,.17.17.32.32,0,0,1,.08.12.2.2,0,0,1-.18.2c-.08,0-.11-.09-.15-.14h0c0,.07.15.14,0,.28s-.17,0-.24,0a.23.23,0,0,1-.07-.07l.13.16c.05.09-.2.25-.35.17s-.25-.26-.3-.26l-.19,0a1.26,1.26,0,0,1-.5-.32l-.25-.25a1.77,1.77,0,0,1-.22-.3A1.19,1.19,0,0,0,18.73,39.19Z"/><path class="cls-3" d="M18.38,40.31,19.33,39s-3.45-3.27-4.74-4.88-2.53-4.74-3.61-5S8.72,29.3,9.2,30.9s3.48,4,4.07,4.72A64.35,64.35,0,0,0,18.38,40.31Z"/></g></g></svg>