<svg xmlns="http://www.w3.org/2000/svg" viewBox="0 0 66.99 70.2"><defs><style>.cls-1{isolation:isolate;}.cls-2{fill:#110239;}.cls-3{fill:#e87503;}.cls-4{fill:#616161;}.cls-5{fill:#00bad1;}.cls-6{fill:#fbb040;}.cls-7{fill:#00547a;mix-blend-mode:multiply;opacity:0.32;}.cls-8{fill:#e45940;}.cls-9{fill:#f88667;}.cls-10{fill:#d0d1de;}.cls-11{fill:#b8b9cd;}.cls-12{fill:#fff;}.cls-13{fill:#e5e6ed;}</style></defs><g class="cls-1"><g id="Layer_2" data-name="Layer 2"><g id="Layer_1-2" data-name="Layer 1"><polygon class="cls-2" points="39.63 66.35 27.36 66.35 28.37 51.56 38.62 51.56 39.63 66.35"/><path class="cls-2" d="M41.24,64a.81.81,0,0,0-.67-.35H26.42a.81.81,0,0,0-.67.35L23.9,66.75A.8.8,0,0,0,24.56,68H42.42a.8.8,0,0,0,.67-1.25Z"/><rect class="cls-2" y="10.59" width="66.99" height="44.9" rx="3.45"/><rect class="cls-3" x="3.08" y="13.56" width="60.82" height="38.49"/><path class="cls-4" d="M56,63.47c-7.07-1.3-15.31-2.86-15.33-.12,0,2.58,3.11,4.59,5.81,5.87a23.73,23.73,0,0,1,4.69-.91c2.77-.43,5.48,0,8.26,0a11.07,11.07,0,0,0,4.41-3.27S61.4,64.48,56,63.47Z"/><path class="cls-5" d="M50,68.38c.23.11-2.47,1.39-2.26,1.5,1.16.36,12.54.43,13.59.16,1.8-.47-3.35-2.71-1.55-3.08,3-2.09,4.62-4.83,3-5.17-1.81-.39-4.63.56-6.46.76a7,7,0,0,1-3.52-.23l-4.44-.49c-4.56.91-5.5,2.55-5.55,2.53,0,.65,3.33,2,6.31,3.57A3.08,3.08,0,0,1,50,68.38Z"/><path class="cls-3" d="M50,68.38c.23.11-2.47,1.39-2.26,1.5,1.16.36,12.54.43,13.59.16,1.8-.47-3.35-2.71-1.55-3.08,3-2.09,4.62-4.83,3-5.17-1.81-.39-4.63.56-6.46.76a7,7,0,0,1-3.52-.23l-4.44-.49c-4.56.91-5.5,2.55-5.55,2.53,0,.65,3.33,2,6.31,3.57A3.08,3.08,0,0,1,50,68.38Z"/><path d="M48.31,66.63l1.44,2s-1.57,1.09-2,1.29-4,.34-4.91-.38-1.12-1.47-.69-1.87a5.43,5.43,0,0,1,2.51-.75C46.09,66.69,48.31,66.63,48.31,66.63Z"/><path class="cls-6" d="M47.43,66.7l.83,3s14-.21,15.47-2.35c1.87-1.94,2.63-5.76-1.15-5.83a8.2,8.2,0,0,0-2.44.49C55,63.69,47.43,66.7,47.43,66.7Z"/><path class="cls-7" d="M62.9,66.5a4.58,4.58,0,0,1-2.32-.87,10.08,10.08,0,0,0-2.9-1.14,23.79,23.79,0,0,1-2.52-.76c-4.07,1.32-7.73,3-7.73,3L48.08,69l1.08.28a8,8,0,0,1,1.27.2l.26.05c4-.21,12.13-.84,13.21-2.42a9.11,9.11,0,0,0,.65-1A7.21,7.21,0,0,1,62.9,66.5Z"/><path d="M59.48,66.81l-1.21,1.54s2,1.2,2.39,1.4,3.28.33,4.19-.32,1.11-1.37.71-1.76a5.19,5.19,0,0,0-2.37-.8A21.45,21.45,0,0,0,59.48,66.81Z"/><path class="cls-6" d="M60.89,66.43l-1.25,3.45s-17.19-1.36-18.59-3.76c-.83-1.43-1-3.67.85-4.46a6.48,6.48,0,0,1,4.9,0C52.34,63.59,60.89,66.43,60.89,66.43Z"/><path class="cls-8" d="M54.13,43.56H51.7s-.35,3.32-1,3.71c0,0-.78,3.92,2.2,3.92,3.62,0,2.21-3.92,2.21-3.92C54.48,46.88,54.13,43.56,54.13,43.56Z"/><path class="cls-9" d="M56.08,44.21c-.34-.39-.74.2-.74.2s.55-2.19,0-3.15S53,40.8,53,40.8s-1.81-.5-2.37.46,0,3.15,0,3.15-.4-.59-.74-.2.56,1.37.76,1.48c0,0,1.3,2.43,2.35,2.43s2.34-2.43,2.34-2.43C55.52,45.58,56.42,44.6,56.08,44.21Z"/><path class="cls-2" d="M52.52,41.67s-1.36.24-1.52,1a2.88,2.88,0,0,0,.08,1.09A7.48,7.48,0,0,1,51.19,45a.2.2,0,0,1-.17,0,2.8,2.8,0,0,1-.47-.56c-.25-.38-.63-.32-.74-.08,0,0-.3-3.6,1.21-3.72S52.52,41.67,52.52,41.67Z"/><path class="cls-2" d="M53.41,41.67s1.37.24,1.52,1a3.09,3.09,0,0,1-.07,1.09A6.62,6.62,0,0,0,54.74,45a.23.23,0,0,0,.18,0,2.75,2.75,0,0,0,.46-.56c.26-.38.63-.32.74-.08,0,0,.3-3.6-1.2-3.72S53.41,41.67,53.41,41.67Z"/><path class="cls-2" d="M55.42,40.77a1.11,1.11,0,0,0-.64-1,3.69,3.69,0,0,0-3.08,0c-1.06.53-1.39.65-1.7.48s-.11-.36-.11-.36-.7,0-.66,1.08a3,3,0,0,0,3.09,2.42C55,43.43,55.83,41.57,55.42,40.77Z"/><path class="cls-10" d="M55.12,47.27c-.13,3.33-2.21,3-2.21,3s-2.07.34-2.2-3a22.43,22.43,0,0,0-4.93,2,31.73,31.73,0,0,1,.73,6.14l1.9,7.34,4.5-.83,4.51.83,1.89-7.34a32.19,32.19,0,0,1,.74-6.14A22.43,22.43,0,0,0,55.12,47.27Z"/><path class="cls-11" d="M59,51.19c-2.06,1.1-3.06,3.63-5.06,4.87s-3.54-1.31-4.54-2.66a7.77,7.77,0,0,0-3.32-2.63,29.84,29.84,0,0,1,.44,4.64l1.9,7.34,4.5-.56,4.51.56,1.89-7.34a32.19,32.19,0,0,1,.43-4.57C59.48,51,59.23,51.07,59,51.19Z"/><path class="cls-10" d="M45.78,49.27S42,58.09,42,59.31c-.08,2.35,5.06,3.3,7.41,2.87l1-.18S46.86,49.21,45.78,49.27Z"/><path class="cls-10" d="M60,49.27s3.79,8.82,3.8,10c0,2.37-5.06,3.3-7.41,2.87l-1-.18S59,49.21,60,49.27Z"/><path class="cls-11" d="M47.38,52.37a6.06,6.06,0,0,1-.16,1.29c-.36,1.6-.93,3.27-.33,4.9a25.65,25.65,0,0,0,1.85,3.66,4.45,4.45,0,0,0,.65,0l1-.18S48.75,56.14,47.38,52.37Z"/><path class="cls-11" d="M57.8,62.13a5.67,5.67,0,0,0,.45-2.36c0-1.63-.06-3.27,0-4.9,0-.71,0-1.4.07-2.07C57,56.57,55.48,62,55.48,62l1,.18A4,4,0,0,0,57.8,62.13Z"/><rect class="cls-2" x="47.01" y="62.1" width="11.81" height="0.7"/><path class="cls-2" d="M60.56,53.92H45.27a.71.71,0,0,0-.68.92c.14.92,2.07,7.35,2.46,7.35H58.78c.34,0,2.32-6.43,2.46-7.35A.71.71,0,0,0,60.56,53.92Z"/><path class="cls-12" d="M53.55,58.37a.64.64,0,1,1-.64-.63A.64.64,0,0,1,53.55,58.37Z"/><path class="cls-2" d="M13,32.81S32.17,57,54,32.81C32.17,8.67,13,32.81,13,32.81Z"/><path class="cls-12" d="M15.9,32.81s16.46,20.76,35.19,0C32.36,12.05,15.9,32.81,15.9,32.81Z"/><circle class="cls-6" cx="33.49" cy="32.81" r="9.09" transform="translate(-6.03 58.03) rotate(-76.96)"/><path class="cls-2" d="M39.22,32.81a5.73,5.73,0,1,1-5.73-5.73A5.72,5.72,0,0,1,39.22,32.81Z"/><path class="cls-12" d="M40.27,29.2a2.33,2.33,0,1,1-2.33-2.33A2.33,2.33,0,0,1,40.27,29.2Z"/><rect class="cls-13" x="5.56" width="27.09" height="18.32" rx="1.23"/><rect class="cls-2" x="6.79" y="1.46" width="24.62" height="15.4"/><polygon class="cls-6" points="15.79 5.6 15.79 13.14 23.13 9.37 15.79 5.6"/></g></g></g></svg>