<svg viewBox="0 0 30.59 30.59" xmlns="http://www.w3.org/2000/svg"><path d="m28 0h-25.37a2.63 2.63 0 0 0 -2.63 2.63v25.37a2.63 2.63 0 0 0 2.63 2.63h25.37a2.63 2.63 0 0 0 2.59-2.63v-25.37a2.63 2.63 0 0 0 -2.59-2.63zm-11 20-6.93 6.93a4.52 4.52 0 0 1 -6.51-.13 4.59 4.59 0 0 1 .2-6.34l3.74-3.75a.35.35 0 0 1 .51 0l.91.91a.35.35 0 0 1 0 .51l-3.76 3.76a2.55 2.55 0 0 0 -.16 3.41 2.49 2.49 0 0 0 3.69.18l6.93-6.92a.36.36 0 0 1 .52 0l.91.91a.36.36 0 0 1 -.05.53zm4.19-2.81a2 2 0 1 1 0-2.81 2 2 0 0 1 0 2.79zm5.64-7-2.83 2.81a.36.36 0 0 1 -.52 0l-.91-.91a.36.36 0 0 1 0-.51l2.86-2.88a2.56 2.56 0 0 0 .22-3.41 2.51 2.51 0 0 0 -3.65-.18l-8.36 8.36 1.21 1.21a.33.33 0 0 1 -.19.56l-4.46.62a.34.34 0 0 1 -.38-.38l.57-4.48a.33.33 0 0 1 .57-.19l1.21 1.19 8.35-8.36a4.52 4.52 0 0 1 6.48.17 4.59 4.59 0 0 1 -.17 6.34z" fill="#e87503"/></svg>