<svg xmlns="http://www.w3.org/2000/svg" viewBox="0 0 16.05 22.43"><defs><style>.cls-1{fill:#e87503;}</style></defs><g id="Layer_2" data-name="Layer 2"><g id="Layer_1-2" data-name="Layer 1"><path class="cls-1" d="M8,10.94a5.47,5.47,0,1,1,5.46-5.47A5.48,5.48,0,0,1,8,10.94ZM8,2a3.47,3.47,0,1,0,3.46,3.47A3.47,3.47,0,0,0,8,2Z"/><path class="cls-1" d="M16.05,22.43h-2v-5a1.85,1.85,0,0,0-1.84-1.85H3.85A1.85,1.85,0,0,0,2,17.42v5H0v-5a3.86,3.86,0,0,1,3.85-3.85h8.36a3.85,3.85,0,0,1,3.84,3.85Z"/></g></g></svg>