<svg viewBox="0 0 175.24 30.59" xmlns="http://www.w3.org/2000/svg"><path d="m28 0h-25.37a2.63 2.63 0 0 0 -2.63 2.63v25.37a2.63 2.63 0 0 0 2.63 2.63h25.37a2.63 2.63 0 0 0 2.59-2.63v-25.37a2.63 2.63 0 0 0 -2.59-2.63zm-11 20-6.93 6.93a4.52 4.52 0 0 1 -6.51-.13 4.59 4.59 0 0 1 .2-6.34l3.74-3.75a.35.35 0 0 1 .51 0l.91.91a.35.35 0 0 1 0 .51l-3.76 3.76a2.55 2.55 0 0 0 -.16 3.41 2.49 2.49 0 0 0 3.69.18l6.93-6.92a.36.36 0 0 1 .52 0l.91.91a.36.36 0 0 1 -.05.53zm4.19-2.81a2 2 0 1 1 0-2.81 2 2 0 0 1 0 2.79zm5.64-7-2.83 2.81a.36.36 0 0 1 -.52 0l-.91-.91a.36.36 0 0 1 0-.51l2.86-2.88a2.56 2.56 0 0 0 .22-3.41 2.51 2.51 0 0 0 -3.65-.18l-8.36 8.36 1.21 1.21a.33.33 0 0 1 -.19.56l-4.46.62a.34.34 0 0 1 -.38-.38l.57-4.48a.33.33 0 0 1 .57-.19l1.21 1.19 8.35-8.36a4.52 4.52 0 0 1 6.48.17 4.59 4.59 0 0 1 -.17 6.34z" fill="#e87503"/><g fill="#fff"><path d="m17 20-6.93 6.93a4.52 4.52 0 0 1 -6.51-.13 4.59 4.59 0 0 1 .2-6.34l3.74-3.75a.35.35 0 0 1 .51 0l.91.91a.35.35 0 0 1 0 .51l-3.76 3.76a2.55 2.55 0 0 0 -.16 3.41 2.49 2.49 0 0 0 3.69.18l6.93-6.92a.36.36 0 0 1 .52 0l.91.91a.36.36 0 0 1 -.05.53z"/><circle cx="19.79" cy="15.76" r="1.98"/><path d="m26.83 10.15-2.83 2.85a.36.36 0 0 1 -.52 0l-.91-.91a.36.36 0 0 1 0-.51l2.86-2.88a2.56 2.56 0 0 0 .22-3.41 2.51 2.51 0 0 0 -3.65-.18l-8.36 8.36 1.21 1.21a.33.33 0 0 1 -.19.56l-4.46.62a.34.34 0 0 1 -.38-.38l.57-4.48a.33.33 0 0 1 .57-.19l1.21 1.19 8.35-8.36a4.52 4.52 0 0 1 6.48.17 4.59 4.59 0 0 1 -.17 6.34z"/></g><path d="m49.29 26.78c-4.44 0-7.58-2.47-7.65-6.12h3.08c.19 1.84 1.49 3.68 4.57 3.68 2.79 0 4.43-1.58 4.43-3.68 0-6-11.95-2.15-11.95-10.36 0-3.65 2.95-6.12 7.33-6.12 4.21 0 7 2.31 7.32 5.67h-3.17c-.19-1.49-1.59-3.17-4.28-3.2-2.38-.06-4.25 1.17-4.25 3.55 0 5.71 11.92 2.16 11.92 10.34 0 3.14-2.57 6.24-7.35 6.24zm18.77-17.88a7.22 7.22 0 0 1 6.47 3.46v-3.17h2.92v17.37h-2.92v-3.23a7.27 7.27 0 0 1 -6.53 3.52c-4.63 0-8.21-3.65-8.21-9s3.61-8.95 8.27-8.95zm.57 2.51c-3.17 0-5.87 2.31-5.87 6.4s2.7 6.5 5.87 6.5 5.9-2.38 5.9-6.47-2.73-6.43-5.9-6.43zm13.7-8.31h2.89v8.59a6.52 6.52 0 0 1 5.78-2.82c3.86 0 6.94 2.47 6.94 7.45v10.24h-2.89v-9.83c0-3.55-1.94-5.36-4.86-5.36s-5 1.84-5 5.58v9.61h-2.86zm27.46 5.8a7.2 7.2 0 0 1 6.47 3.46v-3.17h2.92v17.37h-2.92v-3.23a7.27 7.27 0 0 1 -6.5 3.52c-4.63 0-8.21-3.65-8.21-9s3.58-8.95 8.24-8.95zm.57 2.51c-3.17 0-5.86 2.31-5.86 6.4s2.69 6.5 5.86 6.5 5.9-2.38 5.9-6.47-2.73-6.43-5.9-6.43zm20.87-2.51a7.22 7.22 0 0 1 6.47 3.46v-3.17h2.92v17.37h-2.92v-3.23a7.27 7.27 0 0 1 -6.5 3.52c-4.63 0-8.21-3.65-8.21-9s3.58-8.95 8.24-8.95zm.57 2.51c-3.17 0-5.86 2.31-5.86 6.4s2.69 6.5 5.86 6.5 5.9-2.38 5.9-6.47-2.7-6.43-5.9-6.43z" fill="#1d1d1d"/><path d="m146.42 26.75a2 2 0 1 1 1.9-2 1.93 1.93 0 0 1 -1.9 2zm17.33-.37c.15-.23.27-.36.38-.52.27-.64.59-1.27.84-1.93.63-1.67 1.22-3.4 1.79-5.12.27-.75.43-1.52.7-2.26.12-.43.34-.48.79-.3a5.22 5.22 0 0 1 -.27.82c-.72 2.51-1.47 5-2.26 7.52a7.61 7.61 0 0 1 -.71 1.65 2 2 0 0 1 -2.37.82 1.28 1.28 0 0 1 -.89-1 12.34 12.34 0 0 1 -.2-1.56 29.47 29.47 0 0 1 .68-6.75c.27-1.48.5-2.95.75-4.42v-.23a.78.78 0 0 0 -.32.43c-.34.75-.7 1.52-1 2.27l-1.54 4.2c-.18.45-.38.93-.59 1.36a5.15 5.15 0 0 1 -.43.59 1.62 1.62 0 0 1 -2.63-.27 5 5 0 0 1 -.34-1.27 9.56 9.56 0 0 1 0-3c.15-1.26.36-2.53.54-3.8a1 1 0 0 0 0-.41l-.23.29a17.74 17.74 0 0 0 -1.44 3.3c-.55 1.55-1.12 3.11-1.68 4.63a5.22 5.22 0 0 1 -.55 1.11 1.61 1.61 0 0 1 -2.38.47 2.67 2.67 0 0 1 -.77-.95 5.08 5.08 0 0 1 -.49-2.45 20.48 20.48 0 0 1 .95-5.75c.13-.36.29-.7.41-1.07a.63.63 0 0 1 .52-.34 1.77 1.77 0 0 1 1.15.23.54.54 0 0 1 .3.57c-.09.79-.18 1.58-.32 2.38a25.74 25.74 0 0 0 -.41 3.49l-.09 2.38a.6.6 0 0 0 .09.34c.09-.16.18-.32.25-.48.73-1.84 1.5-3.65 2.2-5.51a25.36 25.36 0 0 1 1.54-3.24 8.13 8.13 0 0 1 .79-1 .91.91 0 0 1 .45-.25 1.68 1.68 0 0 1 1.93.89 3.8 3.8 0 0 1 .3 1.65 36.15 36.15 0 0 1 -.46 4.38l-.27 1.9a1 1 0 0 0 .05.38l.11-.24c.25-.73.5-1.43.72-2.14a26.65 26.65 0 0 1 2.18-4.93 12.29 12.29 0 0 1 1.09-1.55 1.67 1.67 0 0 1 2.35-.18 1.42 1.42 0 0 1 .34.61 4.81 4.81 0 0 1 .16 1.27 40.3 40.3 0 0 1 -.54 4c-.39 2.34-.86 4.65-1 7a3.43 3.43 0 0 1 -.14.84 3 3 0 0 0 .05 1.18z" fill="#e87503"/><path d="m169.52 16.91c-.09.29-.18.63-.3.95a6.9 6.9 0 0 0 -.2 2.52 1.87 1.87 0 0 0 .5 1.13.92.92 0 0 0 1.09.27 4.69 4.69 0 0 0 1.67-1.4 3.69 3.69 0 0 1 .25-.34.82.82 0 0 1 .73-.3.4.4 0 0 1 .38.61 2.6 2.6 0 0 1 -.31.5 6.08 6.08 0 0 1 -1.5 1.41 3.52 3.52 0 0 1 -5.14-2.65 7.14 7.14 0 0 1 .36-3.06 10.14 10.14 0 0 1 3.28-4.9 3.86 3.86 0 0 1 1.95-.86 3.13 3.13 0 0 1 2.63 1 1.49 1.49 0 0 1 .25 1.43 3.9 3.9 0 0 1 -.5 1 6.46 6.46 0 0 1 -4.1 2.6c-.32 0-.63 0-1 .05zm.34-.82h.22a6 6 0 0 0 3.15-1.88 2.52 2.52 0 0 0 .66-1.27 1.34 1.34 0 0 0 -.07-.68c0-.31-.18-.38-.49-.29a2.72 2.72 0 0 0 -1.05.61 9.35 9.35 0 0 0 -2.35 3.26c-.03.07-.03.16-.07.25z" fill="#e87503"/></svg>