<svg xmlns="http://www.w3.org/2000/svg" viewBox="0 0 70.75 66.9"><defs><style>.cls-1{isolation:isolate;}.cls-2{fill:#fbb040;}.cls-3{fill:#e87503;}.cls-4{fill:#110239;}.cls-5{fill:#d0d1de;}.cls-6{fill:#2d2d2d;}.cls-7{fill:#ededed;}.cls-8{fill:#f88667;}.cls-9{fill:#e45940;}.cls-10{fill:#074ea3;}.cls-11{fill:#00547a;mix-blend-mode:multiply;opacity:0.52;}.cls-12{fill:#fd425f;}.cls-13{fill:#ffbe83;}</style></defs><g class="cls-1"><g id="Layer_2" data-name="Layer 2"><g id="Layer_1-2" data-name="Layer 1"><path class="cls-2" d="M63.24,5.87a19.09,19.09,0,0,1,7.51,4.29L65.92,19a10.27,10.27,0,0,0-5-2.66Z"/><path class="cls-3" d="M64.11,11.46c.42-1.57.77-3.17,1.18-4.76a15.23,15.23,0,0,0-2.05-.83L61,16.32c1.27-1.09,1.6-.68,1.83-.79C63.17,14.17,63.74,12.82,64.11,11.46Z"/><path class="cls-2" d="M44.34,1.06S58-.3,65.58,3.63L62.8,15.53S56.1,11.93,45,13.47Z"/><rect class="cls-4" x="44.32" width="1.09" height="46.81"/><rect class="cls-4" x="43.49" y="45.39" width="2.76" height="2.2"/><rect class="cls-4" x="42.41" y="47.11" width="4.92" height="1.1"/><path class="cls-5" d="M24.78,20.71v7.8h1.94V23a1,1,0,0,1,1-1H36.1a1,1,0,0,1,1,1v5.5h1.95v-7.8a1,1,0,0,0-1-1H25.78A1,1,0,0,0,24.78,20.71Z"/><rect class="cls-3" y="25.87" width="63.83" height="41.03" rx="3.42"/><path class="cls-6" d="M63.83,37.3v-8a3.42,3.42,0,0,0-3.42-3.42h-57A3.42,3.42,0,0,0,0,29.29v8a8.8,8.8,0,0,0,8.81,8.81H55A8.81,8.81,0,0,0,63.83,37.3Z"/><rect class="cls-7" x="29.88" y="44.26" width="4.06" height="4.61"/><rect class="cls-6" x="31.26" y="46.47" width="1.31" height="1.14"/><path class="cls-8" d="M15.26,5.55H13.13s-.31,2.91-.87,3.26c0,0-.68,3.43,1.94,3.43,3.17,0,1.93-3.43,1.93-3.43C15.57,8.46,15.26,5.55,15.26,5.55Z"/><path class="cls-9" d="M15.26,5.55H13.13s-.31,2.91-.87,3.26c0,0-.68,3.43,1.94,3.43,3.17,0,1.93-3.43,1.93-3.43C15.57,8.46,15.26,5.55,15.26,5.55Z"/><path class="cls-8" d="M17,6.12c-.29-.34-.65.18-.65.18s.49-1.93,0-2.77-2.07-.4-2.07-.4-1.58-.44-2.07.4,0,2.77,0,2.77-.36-.52-.65-.18.48,1.2.66,1.3c0,0,1.14,2.13,2.06,2.13s2.06-2.13,2.06-2.13C16.48,7.32,17.27,6.46,17,6.12Z"/><path class="cls-4" d="M13.85,3.89s-1.2.21-1.33.86a2.6,2.6,0,0,0,.06,1,6.8,6.8,0,0,1,.11,1.06.18.18,0,0,1-.16,0,2.43,2.43,0,0,1-.41-.49c-.22-.33-.55-.28-.64-.06,0,0-.27-3.16,1-3.27S13.85,3.89,13.85,3.89Z"/><path class="cls-4" d="M14.63,3.89s1.2.21,1.33.86a2.4,2.4,0,0,1-.06,1,5.63,5.63,0,0,0-.1,1.06.16.16,0,0,0,.15,0,2.43,2.43,0,0,0,.41-.49c.23-.33.55-.28.65-.06,0,0,.26-3.16-1.06-3.27S14.63,3.89,14.63,3.89Z"/><path class="cls-4" d="M16.61,3.36a1.46,1.46,0,0,0-.87-1,4,4,0,0,0-2.54-.15,1.66,1.66,0,0,0-1.07,2.68,2,2,0,0,0,1.55.59C16,5.43,17,4.07,16.61,3.36Z"/><path class="cls-10" d="M16.13,8.81c-.11,2.92-1.93,2.62-1.93,2.62s-1.82.3-1.94-2.62a19.41,19.41,0,0,0-4.32,1.75A28.28,28.28,0,0,1,8.58,16l1.66,6.43,4,.2,3.95-.2L19.81,16a28.28,28.28,0,0,1,.64-5.39A19.22,19.22,0,0,0,16.13,8.81Z"/><path class="cls-11" d="M19.52,12.25c-1.8,1-2.68,3.18-4.44,4.26s-3.1-1.14-4-2.32a6.88,6.88,0,0,0-2.91-2.32A27.4,27.4,0,0,1,8.58,16l1.66,6.43,4,.2,3.95-.2L19.81,16a26.79,26.79,0,0,1,.38-4C20,12,19.73,12.14,19.52,12.25Z"/><path class="cls-12" d="M21.53,25c0-2.26-2.81-3.74-2.81-3.74H9.31S6.51,22.73,6.51,25a11.31,11.31,0,0,0,.22,1.75H9.86c-.13.23-.24.44-.33.62l-.09.16h2.27c.17,0,.12.07.07-.18s-.29-.57-.07-.94a2.19,2.19,0,0,1,1.35-.55h1.69a3.32,3.32,0,0,1,.55.09c.16,0,.63,0,.84.25a1.17,1.17,0,0,1,.16.55,5.42,5.42,0,0,1-.09.78h2.85a8.6,8.6,0,0,1-.54-.78H21.3A11.63,11.63,0,0,0,21.53,25Z"/><path class="cls-3" d="M21.53,25c0-2.26-2.81-3.74-2.81-3.74H9.31S6.51,22.73,6.51,25a11.31,11.31,0,0,0,.22,1.75H9.86c-.13.23-.24.44-.33.62l-.09.16h2.27c.17,0,.12.07.07-.18s-.29-.57-.07-.94a2.19,2.19,0,0,1,1.35-.55h1.69a3.32,3.32,0,0,1,.55.09c.16,0,.63,0,.84.25a1.17,1.17,0,0,1,.16.55,5.42,5.42,0,0,1-.09.78h2.85a8.6,8.6,0,0,1-.54-.78H21.3A11.63,11.63,0,0,0,21.53,25Z"/><path class="cls-10" d="M7.94,10.56s-3.6,7.77-3.34,8.81c.07.25,4.44,2.9,6.5,2.52l.84-.16S8.88,10.51,7.94,10.56Z"/><path class="cls-10" d="M20.45,10.56s3.59,7.77,3.33,8.81c-.06.25-4.44,2.9-6.5,2.52l-.84-.16S19.5,10.51,20.45,10.56Z"/><path class="cls-11" d="M9.34,13.28a5.81,5.81,0,0,1-.14,1.13c-.32,1.41-.82,2.87-.29,4.3a23,23,0,0,0,1.62,3.21,2.62,2.62,0,0,0,.57,0l.84-.16S10.54,16.59,9.34,13.28Z"/><path class="cls-11" d="M18.48,21.85a5.19,5.19,0,0,0,.4-2.07c-.05-1.44-.06-2.87,0-4.31,0-.62,0-1.22.06-1.81-1.17,3.31-2.47,8.07-2.47,8.07l.84.16A3.52,3.52,0,0,0,18.48,21.85Z"/><path d="M10.61,38.44s-2.28,2.72-2.55,3.29.38,1.31,1.27,1,1.41-.9,1.42-1.29.49-.59.7-.62,1.39-1.38,1.27-1.75-.71-.77-.71-.77Z"/><path d="M17.43,38.44A39.94,39.94,0,0,1,20,41.73c.27.58-.38,1.31-1.27,1s-1.41-.9-1.42-1.29-.49-.59-.7-.62-1.39-1.38-1.27-1.75.71-.77.71-.77Z"/><path class="cls-2" d="M11.41,24.87c-.28-.64-.33-2-2.16-2-3.52,0-2.7,2.82-2.65,3.25A110.66,110.66,0,0,0,9.69,38.7h3.53s-1.28-10.28-1.48-11.86A12,12,0,0,0,11.41,24.87Z"/><path class="cls-2" d="M16.63,24.87c.28-.64.33-2,2.16-2,3.53,0,2.7,2.82,2.65,3.25A110.66,110.66,0,0,1,18.35,38.7H14.82S16.1,28.42,16.3,26.84A12,12,0,0,1,16.63,24.87Z"/><rect x="9.01" y="21.82" width="10.36" height="0.61"/><path class="cls-6" d="M20.9,14.64H7.49a.62.62,0,0,0-.6.81c.12.8,1.82,6.45,2.16,6.45h10.3c.29,0,2-5.65,2.15-6.45A.62.62,0,0,0,20.9,14.64Z"/><path class="cls-5" d="M14.75,18.55A.56.56,0,1,1,14.2,18,.55.55,0,0,1,14.75,18.55Z"/><polygon class="cls-13" points="8.38 55.09 9.4 58.22 12.7 58.22 10.03 60.15 11.05 63.28 8.38 61.35 5.72 63.28 6.74 60.15 4.08 58.22 7.37 58.22 8.38 55.09"/><polygon class="cls-13" points="20.15 55.09 21.17 58.22 24.46 58.22 21.8 60.15 22.81 63.28 20.15 61.35 17.48 63.28 18.5 60.15 15.84 58.22 19.13 58.22 20.15 55.09"/><polygon class="cls-13" points="31.91 49.9 33.57 55.01 38.95 55.01 34.6 58.17 36.26 63.28 31.91 60.13 27.57 63.28 29.23 58.17 24.88 55.01 30.25 55.01 31.91 49.9"/><polygon class="cls-13" points="43.68 55.09 44.69 58.22 47.99 58.22 45.32 60.15 46.34 63.28 43.68 61.35 41.01 63.28 42.03 60.15 39.37 58.22 42.66 58.22 43.68 55.09"/><polygon class="cls-13" points="55.44 55.09 56.46 58.22 59.75 58.22 57.09 60.15 58.1 63.28 55.44 61.35 52.78 63.28 53.79 60.15 51.13 58.22 54.42 58.22 55.44 55.09"/></g></g></g></svg>