<svg viewBox="0 0 58.63 58.63" xmlns="http://www.w3.org/2000/svg"><path d="m29.35 0a29.32 29.32 0 1 1 -29.35 29.11 29.31 29.31 0 0 1 29.35-29.11zm-.05 22h11.94a3.83 3.83 0 0 0 4-2.88 2.61 2.61 0 0 0 -.4-2.57 20.14 20.14 0 0 0 -30.84-.18 2.72 2.72 0 0 0 -.6 2.63 3.82 3.82 0 0 0 4 3.05c3.94-.05 7.92-.05 11.9-.05zm21.7-9.11.08-.2c-6.08-7.46-13.9-11.24-23.62-10.63-8.22.52-14.8 4.28-19.9 10.66l.06.18h.58 5.51a2.35 2.35 0 0 0 1.65-.59 21.46 21.46 0 0 1 13.8-5 21.69 21.69 0 0 1 14.41 5.21 1.28 1.28 0 0 0 .68.35c2.26.03 4.52.02 6.75.02zm-43.36 32.86-.08.2c6.44 7.79 14.67 11.55 24.83 10.51 7.72-.8 13.93-4.5 18.82-10.71-2.35 0-4.51 0-6.68 0a1.76 1.76 0 0 0 -1 .38 22 22 0 0 1 -28.46-.07 1.19 1.19 0 0 0 -.63-.32c-2.28 0-4.54.01-6.8.01zm33.82-14.75c-1 0-2 0-3 0a1.59 1.59 0 0 0 -1.76 1.48c-.11.67-.25 1.33-.35 2a4.14 4.14 0 0 1 -1.58 2.73.86.86 0 0 0 -.32.53c0 2-.05 4.08 0 6.11a3.68 3.68 0 0 0 2.93 3.42 1.91 1.91 0 0 0 1.2-.15 19.69 19.69 0 0 0 9.42-10.56 4 4 0 0 0 -3.73-5.56c-.94-.06-1.88 0-2.81 0zm-24.22 0c-1 0-2 0-3 0a3.9 3.9 0 0 0 -3.71 5.22 19.19 19.19 0 0 0 9.64 11 1.56 1.56 0 0 0 .93.11 3.84 3.84 0 0 0 3.11-3.79c0-1.87 0-3.75 0-5.63a1 1 0 0 0 -.34-.68 4.17 4.17 0 0 1 -1.51-2.51 22.35 22.35 0 0 1 -.36-2.36 1.31 1.31 0 0 0 -1-1.26 2.9 2.9 0 0 0 -.77-.14c-1.04.04-2.02.04-2.99.04zm28.86-16.14c7.06 9.69 7 19.3 0 28.93h5.72a1.1 1.1 0 0 0 1.14-.66 27.33 27.33 0 0 0 3.45-17.79 26.41 26.41 0 0 0 -3.61-10.05 1 1 0 0 0 -.58-.42c-2.04-.03-4.08-.01-6.12-.01zm-33.55 28.93c-7-9.69-7-19.28 0-28.93-1.92 0-3.85 0-5.79 0a1 1 0 0 0 -1 .58 27.31 27.31 0 0 0 -3.46 17.9 27 27 0 0 0 3.6 10.06c.1.16.31.38.48.38 2.06.02 4.14.01 6.17.01zm9.25-19.79c0 1.48.06 2.89 0 4.29 0 .78.16 1.27.93 1.51a1.51 1.51 0 0 1 1 1.43c.12 1 .32 2 .5 2.95a2 2 0 0 0 2.15 1.82h5.93a2 2 0 0 0 2.08-1.77c.21-1.1.41-2.2.59-3.31a1.19 1.19 0 0 1 .73-1 6.42 6.42 0 0 0 .86-.46.52.52 0 0 0 .26-.35c0-1.69 0-3.38 0-5.11zm13.32 24.5c0-.09 0-.11 0-.12a2.18 2.18 0 0 0 -.22-.21 5.68 5.68 0 0 1 -2.39-4.6c0-1.63 0-3.26 0-4.89 0-.23 0-.47 0-.7h-6.33c0 1.57-.05 3.1 0 4.63a6.23 6.23 0 0 1 -2.62 5.72s0 .07-.06.17a20 20 0 0 0 11.62.01zm14.08-17c.68-2.94-.61-9.55-2.19-11.42a6 6 0 0 1 -6.41 3.92c-.58 0-1.17 0-1.77 0v5h.69 4a6.25 6.25 0 0 1 5.68 2.49zm-37.6-11.5c-2 3.4-2.74 8.58-2.12 11.43a6.07 6.07 0 0 1 5.16-2.43h4.53.62v-5c-1 0-1.92 0-2.85 0a5.65 5.65 0 0 1 -4.71-2.75c-.23-.4-.4-.79-.63-1.25z" fill="#1d1d1d"/><g fill="#ffd3ae"><path d="m51 12.89c-2.27 0-4.53 0-6.79 0a1.28 1.28 0 0 1 -.68-.35 21.69 21.69 0 0 0 -14.37-5.22 21.46 21.46 0 0 0 -13.8 5 2.35 2.35 0 0 1 -1.65.59c-1.83 0-3.67 0-5.51 0h-.58l-.06-.18c5.1-6.38 11.68-10.14 19.9-10.66 9.72-.62 17.54 3.16 23.66 10.62z"/><path d="m7.64 45.75h6.78a1.19 1.19 0 0 1 .63.32 22 22 0 0 0 28.46.07 1.76 1.76 0 0 1 1-.38h6.68c-4.87 6.24-11.08 9.9-18.8 10.7-10.16 1.04-18.39-2.72-24.83-10.46z"/><path d="m46.1 14.86h6.12a1 1 0 0 1 .58.42 26.41 26.41 0 0 1 3.59 10.06 27.33 27.33 0 0 1 -3.45 17.79 1.1 1.1 0 0 1 -1.14.66c-1.91 0-3.83 0-5.72 0 7.06-9.63 7.08-19.24.02-28.93z"/><path d="m12.55 43.79c-2 0-4.11 0-6.18 0-.17 0-.38-.22-.48-.38a27 27 0 0 1 -3.6-10.06 27.31 27.31 0 0 1 3.46-17.9 1 1 0 0 1 1-.58h5.79c-7.04 9.64-7.03 19.23.01 28.92z"/><path d="m21.8 24h15v5.11a.52.52 0 0 1 -.26.35 6.42 6.42 0 0 1 -.86.46 1.19 1.19 0 0 0 -.73 1c-.18 1.11-.38 2.21-.59 3.31a2 2 0 0 1 -2.05 1.77c-2 0-4 0-5.93 0a2 2 0 0 1 -2.13-1.79c-.18-1-.38-2-.5-2.95a1.51 1.51 0 0 0 -1-1.43c-.77-.24-1-.73-.93-1.51.04-1.42-.02-2.83-.02-4.32zm3.37 5.31a4.15 4.15 0 0 0 4.14 4.17 4.17 4.17 0 1 0 0-8.33 4.13 4.13 0 0 0 -4.14 4.17z"/><path d="m35.12 48.51a20 20 0 0 1 -11.61 0c0-.1 0-.15.06-.17a6.23 6.23 0 0 0 2.62-5.72c-.06-1.53 0-3.06 0-4.63h6.25v.7 4.89a5.68 5.68 0 0 0 2.39 4.6 2.18 2.18 0 0 1 .22.21s.07.03.07.12z"/><path d="m49.2 31.49a6.25 6.25 0 0 0 -5.64-2.49c-1.34 0-2.69 0-4 0h-.69v-5h1.77a6 6 0 0 0 6.36-3.93c1.59 1.87 2.88 8.48 2.2 11.42z"/><path d="m11.6 20c.23.44.4.83.63 1.18a5.65 5.65 0 0 0 4.71 2.82c.93.05 1.87 0 2.85 0v5c-.19 0-.41 0-.62 0-1.51 0-3 0-4.53 0a6.07 6.07 0 0 0 -5.16 2.46c-.62-2.86.16-8.04 2.12-11.46z"/></g><path d="m25.17 29.32a4.17 4.17 0 0 1 8.33 0 4.2 4.2 0 0 1 -4.19 4.2 4.15 4.15 0 0 1 -4.14-4.2zm4.16-2.2a2.21 2.21 0 0 0 0 4.41 2.23 2.23 0 0 0 2.24-2.2 2.2 2.2 0 0 0 -2.24-2.21z" fill="#1d1d1d"/></svg>