<svg viewBox="0 0 52.31 51.85" xmlns="http://www.w3.org/2000/svg"><path d="m13 18.24c-1.65-.46-2.44-1.16-2.63-2.38a2.55 2.55 0 0 1 .54-2 1.22 1.22 0 0 0 .25-.66c.3-6.39 4.49-11.15 10.81-12 7.53-1 12.45 3.45 14 8.45a30.49 30.49 0 0 1 .6 3.46 2 2 0 0 0 .28.77 2.52 2.52 0 0 1 -.74 3.79.79.79 0 0 0 -.37.52.73.73 0 0 0 .37.5 2.94 2.94 0 0 1 -.86 5.6.64.64 0 0 0 -.6.5 12.66 12.66 0 0 1 -6.11 7.25.78.78 0 0 0 -.39.57.84.84 0 0 0 .44.55c2 .94 4.06 1.83 6.07 2.77a8.6 8.6 0 0 1 5.27 8.07c.06 2.25 0 4.5 0 6.75 0 .82-.26 1.07-1.08 1.07h-30c-.81 0-1.06-.27-1.07-1.09 0-2.25 0-4.51 0-6.75a8.5 8.5 0 0 1 5-7.92c2.07-1 4.2-1.91 6.3-2.89a1 1 0 0 0 .49-.58.77.77 0 0 0 -.39-.93 12.3 12.3 0 0 1 -5.33-6.83.66.66 0 0 0 -.61-.55 3.07 3.07 0 0 1 -2.5-2.5 3 3 0 0 1 1.7-3.09 2.56 2.56 0 0 0 .56-.45zm6.15-.31a3.93 3.93 0 0 0 -1.47.29 14.92 14.92 0 0 1 -4.33 2 1.24 1.24 0 0 0 -.87 1.39 1.42 1.42 0 0 0 1.34 1.08c1.18-.1 1.23-.05 1.53 1.05a10.79 10.79 0 0 0 6.56 7.48 5.34 5.34 0 0 0 3.93.14 10.85 10.85 0 0 0 7.41-7.81c.25-.9.48-1 1.37-.9a1.36 1.36 0 0 0 .6 0 1.27 1.27 0 0 0 .78-1.74 1.47 1.47 0 0 0 -1.89-.68 10.85 10.85 0 0 1 -5.23 1 15.2 15.2 0 0 1 -7.57-2.62 3.42 3.42 0 0 0 -2.15-.68zm15.65-5a10.24 10.24 0 0 0 -5.55-8.85 11.22 11.22 0 0 0 -11.92.73 10.19 10.19 0 0 0 -4.44 8.12zm-18.66 23.51-2.2 1a7 7 0 0 0 -4.43 6.89v5.2.62h4.2v-.79c0-.86 0-1.73 0-2.59a.75.75 0 0 1 .84-.79.75.75 0 0 1 .81.76v.75 2.65h7.64v-10.82c-.88 1.22-1.64 2.34-2.47 3.41a1.67 1.67 0 0 1 -1 .63c-.5.08-.69-.41-.86-.82zm15.52 0c-.13.26-.22.44-.3.63q-1.17 2.76-2.36 5.55c-.42 1-1.11 1.06-1.74.2l-1-1.36-1.5-2.1v10.77h8.44v-.67c0-.81 0-1.61 0-2.42s.28-1.04.8-1.04.85.36.86 1.11v3.07h3.34c0-2.33.1-4.62 0-6.9a6.34 6.34 0 0 0 -3.2-5.18c-1-.66-2.19-1.1-3.34-1.69zm-7.79-21.79h-10.47c-1 0-1.38.28-1.36.87s.43.83 1.35.83h21a3.07 3.07 0 0 0 .68-.05.77.77 0 0 0 .63-.87.79.79 0 0 0 -.74-.77 3.51 3.51 0 0 0 -.56 0zm4 20.06a4.52 4.52 0 0 1 -2.5 2.52l2.58 3.6 2.16-5.09zm-8 6.12 2.58-3.61a4.42 4.42 0 0 1 -2.5-2.5l-2.24 1zm14.13-22.61-.13-.15h-9.87a10.08 10.08 0 0 0 2.21 1 9.65 9.65 0 0 0 7.4-.43 2.55 2.55 0 0 0 .39-.42zm-7.6 14.78a7 7 0 0 1 -5-.15 2.57 2.57 0 0 0 1.08 2.53 2.38 2.38 0 0 0 2.74.09 2.49 2.49 0 0 0 1.18-2.47z" fill="#1d1d1d"/><path d="m45.87 37.48c0-2.41 0-4.71 0-7a.94.94 0 0 0 -.3-.57c-.58-.61-1.18-1.21-1.8-1.78a1.06 1.06 0 0 1 -.28-1.28c.53-1.28 1-2.56 1.54-3.85a1 1 0 0 1 1.08-.73h.07c2.23 0 1.91-.14 2.68 1.76.37.93.73 1.87 1.12 2.8a1.06 1.06 0 0 1 -.26 1.29c-.63.6-1.24 1.21-1.84 1.84a.88.88 0 0 0 -.27.51v7h1.49c.73 0 1 .3 1 1v10a3.36 3.36 0 0 1 -6.72.06c0-3.39 0-6.77 0-10.16 0-.64.31-.92 1-1h1.56zm-.87 1.71v.67 8.17a3.56 3.56 0 0 0 .1.92 1.66 1.66 0 0 0 3.14.17 2.84 2.84 0 0 0 .15-1c0-2.81 0-5.61 0-8.42 0-.18 0-.35 0-.55zm1.75-10.53c.44-.45.87-.87 1.27-1.32a.58.58 0 0 0 .11-.47c-.33-.89-.69-1.77-1.06-2.64a.46.46 0 0 0 -.34-.26.57.57 0 0 0 -.4.26c-.19.37-.32.76-.47 1.14-.73 1.88-.73 1.88.91 3.29z" fill="#1d1d1d"/><path d="m0 29a5.14 5.14 0 0 1 3.83-5 5.31 5.31 0 0 1 6 2.41 4.94 4.94 0 0 1 -.83 6.19 3.77 3.77 0 0 0 -.94 2.59c-.1.87-.17 1.75-.29 2.62a2.55 2.55 0 0 1 -2.62 2.19 2.62 2.62 0 0 1 -2.43-2.51 30.87 30.87 0 0 0 -.44-3.59 2.87 2.87 0 0 0 -.78-1.28 5.22 5.22 0 0 1 -1.5-3.62zm5.26.64c.38-.43.69-.81 1-1.16a.82.82 0 0 1 1.26-.06.84.84 0 0 1 -.08 1.26 13.59 13.59 0 0 0 -1 1 1.6 1.6 0 0 0 -.37.84v2.91a3.78 3.78 0 0 0 .06.47h.16a1.77 1.77 0 0 0 .12-.37 4.5 4.5 0 0 1 1.49-3.28 3.08 3.08 0 0 0 .8-3.14 3.52 3.52 0 0 0 -3.13-2.59 3.63 3.63 0 0 0 -3.57 2.11 3.34 3.34 0 0 0 .84 3.9 3.8 3.8 0 0 1 1.16 2.47c0 .33.1.66.16 1 .13-.11.21-.15.21-.19 0-1.7.6-3.57-1.14-4.89a1.74 1.74 0 0 1 -.23-.31.8.8 0 0 1 0-1.21.79.79 0 0 1 1.2.11c.35.33.64.68 1.06 1.15zm-.82 7c0 .57-.2 1.17.39 1.49a1.05 1.05 0 0 0 .9 0c.57-.33.36-.93.35-1.48z" fill="#1d1d1d"/><path d="m46.58 10.79h1.38a.81.81 0 0 1 .69 1.28c-.08.14-.18.27-.28.41l-5.57 7.8-.18.25a.85.85 0 0 1 -1.5-.81q.85-2.34 1.7-4.7c.08-.21.15-.42.26-.74h-1.64c-.94 0-1.3-.66-.79-1.45 1.75-2.75 3.52-5.48 5.27-8.23a.88.88 0 0 1 1.15-.45c.49.2.56.63.46 1.14-.31 1.62-.6 3.24-.89 4.86-.03.19-.04.37-.06.64zm-1.49-1.56-.09-.05-2.15 3.35a7.56 7.56 0 0 1 1.82.2c.73.29.43 1 .35 1.55l1.27-1.78h-.44c-1 0-1.27-.34-1.1-1.36.11-.66.25-1.29.34-1.91z" fill="#1d1d1d"/><path d="m5.68 9.57a3 3 0 0 1 0-5.92 3 3 0 1 1 0 5.92zm0-1.71a1.23 1.23 0 0 0 1.32-1.25 1.26 1.26 0 0 0 -2.51 0 1.23 1.23 0 0 0 1.21 1.25z" fill="#1d1d1d"/><path d="m39.1 3.47c-.37.42-.63.75-.92 1a.8.8 0 0 1 -1.21 0 .77.77 0 0 1 0-1.2c.28-.3.6-.56 1-.95-.38-.34-.71-.59-1-.88a.82.82 0 0 1 .03-1.2.89.89 0 0 1 1.27.07c.15.14.3.29.44.44s.24.28.44.53c.33-.37.59-.68.88-1a.86.86 0 0 1 1.22-.04.83.83 0 0 1 -.07 1.26c-.27.28-.59.51-1 .88.43.36.76.61 1 .9a.83.83 0 0 1 .06 1.26.88.88 0 0 1 -1.24-.09c-.3-.27-.54-.58-.9-.98z" fill="#1d1d1d"/><path d="m51.36 3.34a.94.94 0 0 1 -.93-.95.94.94 0 1 1 .93.95z" fill="#1d1d1d"/><g fill="#ffd3ae"><path d="m19.16 17.93a3.42 3.42 0 0 1 2.19.71 15.2 15.2 0 0 0 7.57 2.62 10.85 10.85 0 0 0 5.23-1 1.47 1.47 0 0 1 1.89.68 1.27 1.27 0 0 1 -.81 1.69 1.36 1.36 0 0 1 -.6 0c-.89-.14-1.12 0-1.37.9a10.85 10.85 0 0 1 -7.41 7.81 5.34 5.34 0 0 1 -3.93-.14 10.79 10.79 0 0 1 -6.56-7.48c-.3-1.1-.35-1.15-1.53-1.05a1.42 1.42 0 0 1 -1.34-1.08 1.24 1.24 0 0 1 .87-1.39 14.92 14.92 0 0 0 4.33-2 3.93 3.93 0 0 1 1.47-.27zm.93 3.91a.85.85 0 1 0 .83.82.87.87 0 0 0 -.83-.82zm8.44 0a.85.85 0 0 0 0 1.69.87.87 0 0 0 .84-.82.85.85 0 0 0 -.84-.87z"/><path d="m23.87 14.65h10.53a3.51 3.51 0 0 1 .56 0 .79.79 0 0 1 .74.77.77.77 0 0 1 -.63.87 3.07 3.07 0 0 1 -.68.05h-21c-.92 0-1.33-.25-1.35-.83s.41-.87 1.36-.87z"/><path d="m27.84 34.71 2.24 1-2.16 5.09-2.58-3.6a4.52 4.52 0 0 0 2.5-2.49z"/><path d="m19.84 40.83-2.16-5.09 2.24-1a4.42 4.42 0 0 0 2.5 2.5z"/><path d="m34 18.22a2.55 2.55 0 0 1 -.47.4 9.65 9.65 0 0 1 -7.4.43 10.08 10.08 0 0 1 -2.21-1h10z"/><path d="m26.4 33a2.49 2.49 0 0 1 -1.22 2.47 2.38 2.38 0 0 1 -2.74-.09 2.57 2.57 0 0 1 -1.08-2.53 7 7 0 0 0 5.04.15z"/><path d="m45 39.19h3.36v.55 8.42a2.84 2.84 0 0 1 -.15 1 1.66 1.66 0 0 1 -3.09-.16 3.56 3.56 0 0 1 -.12-1c0-2.72 0-5.44 0-8.17z"/><path d="m46.77 28.66c-1.64-1.41-1.64-1.41-.89-3.29.15-.38.28-.77.47-1.14a.57.57 0 0 1 .4-.26.46.46 0 0 1 .34.26c.37.87.73 1.75 1.06 2.64a.58.58 0 0 1 -.11.47c-.4.45-.83.87-1.27 1.32z"/><path d="m5.26 29.66c-.42-.47-.71-.82-1-1.15a.79.79 0 0 0 -1.26-.11.8.8 0 0 0 0 1.21 1.74 1.74 0 0 0 .28.32c1.72 1.32 1.06 3.19 1.11 4.89 0 0-.08.08-.21.19-.06-.39-.13-.72-.16-1a3.8 3.8 0 0 0 -1.2-2.43 3.34 3.34 0 0 1 -.82-3.95 3.63 3.63 0 0 1 3.63-2.07 3.52 3.52 0 0 1 3.13 2.59 3.08 3.08 0 0 1 -.8 3.14 4.5 4.5 0 0 0 -1.49 3.28 1.77 1.77 0 0 1 -.12.37h-.18a3.78 3.78 0 0 1 -.06-.47c0-1 0-1.94 0-2.91a1.6 1.6 0 0 1 .37-.84 13.59 13.59 0 0 1 1-1 .84.84 0 0 0 .08-1.26.82.82 0 0 0 -1.26.06c-.3.33-.66.71-1.04 1.14z"/></g><path d="m4.44 36.67h1.64c0 .55.22 1.15-.35 1.48a1.05 1.05 0 0 1 -.9 0c-.59-.31-.36-.91-.39-1.48z" fill="#fff"/><path d="m45.09 9.23c-.11.62-.23 1.25-.34 1.87-.17 1 .08 1.32 1.1 1.36h.44l-1.29 1.82c.08-.59.38-1.26-.35-1.55a7.56 7.56 0 0 0 -1.82-.2l2.17-3.35z" fill="#ffd3ae"/><path d="m5.7 7.86a1.25 1.25 0 1 1 0-2.5 1.25 1.25 0 0 1 1.3 1.25 1.23 1.23 0 0 1 -1.3 1.25z" fill="#ffd3ae"/><path d="m20.09 21.84a.85.85 0 1 1 -.86.8.87.87 0 0 1 .86-.8z" fill="#1d1d1d"/><path d="m28.53 21.84a.85.85 0 0 1 .84.87.87.87 0 0 1 -.84.82.85.85 0 0 1 0-1.69z" fill="#1d1d1d"/><path d="m24.15 7.83c.49 0 .86 0 1.23.09a.82.82 0 0 1 .62 1.41c-.8.86-1.63 1.69-2.47 2.51a.79.79 0 0 1 -1.17 0 .81.81 0 0 1 0-1.21c.32-.33.71-.61 1.06-.91l-.14-.18c-.31 0-.61 0-.92-.09a.8.8 0 0 1 -.61-1.28c.77-1 1.58-2 2.4-3a.76.76 0 0 1 1.12-.07.78.78 0 0 1 .14 1.16c-.41.52-.8.99-1.26 1.57z" fill="#1d1d1d"/><path d="m29.38 45.11h2a.81.81 0 0 1 .91.8c.05.48-.34.85-.91.86q-2 0-4.08 0c-.58 0-1-.38-.91-.86a.81.81 0 0 1 .91-.8z" fill="#1d1d1d"/></svg>