<svg viewBox="0 0 58.36 49.01" xmlns="http://www.w3.org/2000/svg"><path d="m58.36 48.44a1.34 1.34 0 0 1 -1.27.57h-55.85a3.39 3.39 0 0 1 -.45 0 .86.86 0 0 1 -.79-.91.8.8 0 0 1 .77-.83 13.59 13.59 0 0 1 1.43 0h2.81v-12.48c0-1 .25-1.27 1.28-1.27h7.41c.94 0 1.22.29 1.22 1.23v12.45h3v-17.58c0-1 .23-1.26 1.28-1.26h7.35c1 0 1.21.25 1.21 1.21v16.87.76h3v-16.13c0-1.19.21-1.4 1.39-1.4h7.24c1 0 1.28.24 1.28 1.27v16.26h3v-24.9c0-1.24.19-1.44 1.41-1.44h7.23c.94 0 1.21.28 1.21 1.23v25.15h3.79a1.21 1.21 0 0 1 1.12.53zm-6.7-1.24v-24.52h-6.26v24.52zm-25.66.01v-17.06h-6.31v17.06zm12.81 0v-15.73h-6.29v15.72zm-25.69 0v-11.86h-6.33v11.85z" fill="#1d1d1d"/><path d="m40.52 8a8 8 0 1 1 16 .23 8.07 8.07 0 0 1 -8.07 7.77 8 8 0 0 1 -7.93-8zm8-6.19a6.24 6.24 0 1 0 6.25 6.19 6.27 6.27 0 0 0 -6.29-6.23z" fill="#1d1d1d"/><path d="m44.81 17.79a1.83 1.83 0 0 1 -.4.58q-4.56 3.63-9.14 7.26a1.15 1.15 0 0 1 -1.27.07c-3.55-1.48-7.11-2.94-10.66-4.43a1 1 0 0 0 -1.12.13q-5.55 4-11.12 7.94a2.36 2.36 0 0 1 -.42.28.77.77 0 0 1 -1-.2.83.83 0 0 1 0-1.1 2 2 0 0 1 .47-.4c3.91-2.79 7.82-5.57 11.72-8.38a1.4 1.4 0 0 1 1.52-.18c3.51 1.48 7 2.93 10.54 4.41a.94.94 0 0 0 1.07-.16c2.7-2.18 5.43-4.34 8.15-6.5a1.67 1.67 0 0 1 .75-.35c.5-.08.89.31.91 1.03z" fill="#1d1d1d"/><g fill="#ffd3ae"><path d="m51.66 47.2h-6.26v-24.52h6.26z"/><path d="m26 47.21h-6.31v-17.06h6.31z"/><path d="m38.76 47.2h-6.24v-15.72h6.24z"/><path d="m13.07 47.2h-6.28v-11.85h6.28z"/><path d="m48.48 1.77a6.24 6.24 0 1 1 -6.26 6.23 6.27 6.27 0 0 1 6.26-6.23zm-.71 1.08a3 3 0 0 1 0 .68.71.71 0 0 1 -.29.46 2.34 2.34 0 0 0 -1.38 2.24 2.22 2.22 0 0 0 1.44 2.12 13.68 13.68 0 0 1 1.27.65 1.22 1.22 0 0 1 .52.63.9.9 0 0 1 -1 1.12 20.89 20.89 0 0 1 -2.29-.36l-.14 1.33 1.1.28c.91.22.91.22 1 1.14 0 0 0 .06.06.08h1.22a3.78 3.78 0 0 0 0-.59.58.58 0 0 1 .42-.68 2.26 2.26 0 0 0 1.4-2.16 2.25 2.25 0 0 0 -1.39-2.11 15.56 15.56 0 0 1 -1.46-.68 1.17 1.17 0 0 1 -.49-.74c-.09-.75.46-1.12 1.34-1 .36.07.72.17 1.12.26l.16-1.37-1.29-.32v-1z"/></g><path d="m47.77 2.85h1.32v1l1.29.32-.16 1.37c-.4-.09-.76-.19-1.12-.26-.88-.15-1.43.22-1.34 1a1.17 1.17 0 0 0 .49.74 15.56 15.56 0 0 0 1.43.68 2.25 2.25 0 0 1 1.39 2.11 2.26 2.26 0 0 1 -1.4 2.16.58.58 0 0 0 -.42.68 3.78 3.78 0 0 1 0 .59h-1.25s-.06 0-.06-.08c-.08-.92-.08-.92-1-1.14l-1.08-.28.14-1.33a20.89 20.89 0 0 0 2.29.36.9.9 0 0 0 1-1.12 1.22 1.22 0 0 0 -.48-.65 13.68 13.68 0 0 0 -1.28-.61 2.22 2.22 0 0 1 -1.44-2.12 2.34 2.34 0 0 1 1.38-2.27.71.71 0 0 0 .29-.46 3 3 0 0 0 .01-.69z" fill="#1d1d1d"/></svg>