<svg viewBox="0 0 51.39 53.27" xmlns="http://www.w3.org/2000/svg"><g fill="#1d1d1d"><path d="m46.34 53.27c-1-.14-2-.25-3-.42a26.52 26.52 0 0 1 -6.77-2.13 1.29 1.29 0 0 0 -.78-.08 48.9 48.9 0 0 1 -13.1 1.27 23.37 23.37 0 0 1 -11.69-3.75c-1.94-1.24-3.83-2.56-5.68-3.93a14.57 14.57 0 0 0 -3.62-2c-1.29-.48-1.61-1.09-1.7-2.47a22.69 22.69 0 0 1 1.2-7.09c2.2-8.21 4.47-16.4 6.7-24.6a2.39 2.39 0 0 1 1.43-1.62l13.67-6.25c.75-.34 1-.27 1.51.38 1.49 1.91 2.97 3.81 4.49 5.73a2.62 2.62 0 0 1 -.14 3.74l-3.95 4.42a2.55 2.55 0 0 1 -3.93.2l-.82-.75-2.4.73.82 13.79c4.81-2.86 9.48-2.48 13.88.27l2.12-1.83c4.14-3.61 8.72-4.07 13.64-1.84a20.62 20.62 0 0 1 2.68 1.57.9.9 0 0 1 .3 1.39c-.32.42-.83.45-1.37.06a13.15 13.15 0 0 0 -6.56-2.54 10 10 0 0 0 -8.12 3.25c-.4.4-.77.84-1.17 1.27.31.39.6.74.86 1.1a7.37 7.37 0 0 1 1.44 3c.14.72-.1 1.21-.66 1.3s-.88-.22-1.07-.91a7.37 7.37 0 0 0 -3-4.18 10.58 10.58 0 0 0 -12.71.12 1.5 1.5 0 0 0 -.43.61c-.35.8-.61 1.66-1 2.43a2.87 2.87 0 0 1 -1.08 1 .82.82 0 0 1 -1.15-.51.91.91 0 0 1 .33-1.15 1.59 1.59 0 0 0 .48-.52 6.26 6.26 0 0 0 .81-3.27c-.29-4.41-.53-8.82-.77-13.24a2.35 2.35 0 0 0 -.6-1.22 2.6 2.6 0 0 1 -.42-.76c-.13-.6.33-1 1-1a13.55 13.55 0 0 0 2.21-.19 3 3 0 0 0 1.13-.65 1 1 0 0 1 1.31 0c.51.45 1 .92 1.49 1.37s.88.47 1.34 0c1.36-1.52 2.73-3 4.08-4.57.42-.48.44-.76.07-1.25q-2.05-2.68-4.12-5.36l-.12-.19-6.7 3c-2.16 1-4.31 2-6.48 3a1 1 0 0 0 -.66.77c-1.72 6.23-3.47 12.43-5.15 18.66-.91 3.39-1.73 6.81-2.53 10.23a11 11 0 0 0 -.07 2.44c0 .11.12.23.2.33s.09 0 .14.07c2.55.72 4.42 2.53 6.51 4a40.49 40.49 0 0 0 6.75 4 22.72 22.72 0 0 0 9.5 1.71 50.45 50.45 0 0 0 11-1.39 1.57 1.57 0 0 1 1 .11 25.06 25.06 0 0 0 12.91 2.51h.68a.86.86 0 0 1 .89.77.85.85 0 0 1 -.7 1c-.4.09-.81.12-1.22.18z"/><path d="m42.1 5.23.55-.5a4.52 4.52 0 0 1 6.35 6.39c-2 2.13-4.15 4.18-6.24 6.26a.88.88 0 0 1 -1.41 0c-2-2-4.08-4.05-6.09-6.11a4.53 4.53 0 0 1 6.38-6.42zm0 10.31c1.93-1.92 3.84-3.75 5.69-5.66a2.7 2.7 0 0 0 -.11-3.76 2.75 2.75 0 0 0 -3.84-.12c-.36.33-.68.69-1 1a.89.89 0 0 1 -1.41 0c-.27-.26-.53-.54-.81-.8a2.76 2.76 0 1 0 -3.91 3.89l2.38 2.39c.97 1.04 1.97 2.04 2.98 3.06z"/><path d="m25.16 47.45c-5.94-.22-10.29-2.13-13.64-6.14-.23-.28-.44-.57-.64-.87a.89.89 0 1 1 1.46-1 13.8 13.8 0 0 0 4.16 3.93 15.42 15.42 0 0 0 9.34 2.22c1-.07 2.06-.26 3.09-.41.61-.1 1.07.14 1.17.64a.86.86 0 0 1 -.82 1.08c-1.62.26-3.28.45-4.12.55z"/><path d="m50.36 44.25a11.28 11.28 0 0 1 -4.82-1.68 3.84 3.84 0 0 1 -1.07-1.23.93.93 0 0 1 .37-1.41c.51-.23.87 0 1.25.65a1.94 1.94 0 0 0 .9.8c1.08.41 2.19.72 3.29 1.06.15.05.31.06.45.1a.86.86 0 0 1 .64 1 .9.9 0 0 1 -1.01.71z"/></g><path d="m42.07 15.54c-1-1-2-2-3-3l-2.38-2.39a2.76 2.76 0 1 1 3.91-3.89c.28.26.54.54.81.8a.89.89 0 0 0 1.41 0c.36-.33.68-.69 1-1a2.75 2.75 0 0 1 3.81.09 2.7 2.7 0 0 1 .11 3.76c-1.83 1.88-3.74 3.71-5.67 5.63z" fill="#ffd3ae"/></svg>