<svg viewBox="0 0 66.77 52.22" xmlns="http://www.w3.org/2000/svg"><path d="m66.77 12.3a1.21 1.21 0 0 1 -1.14.61c-6.11-.07-11.51 2-16.53 5.34a6.27 6.27 0 0 1 -.89.55.73.73 0 0 1 -1.05-.34 1.29 1.29 0 0 1 .18-1 3.87 3.87 0 0 1 .94-.73l-.07-.21c-3.39.72-6.79 1.4-10.17 2.18a32.19 32.19 0 0 0 -7.71 2.73 5.19 5.19 0 0 0 -2.26 1.93c1.31 0 2.62.06 3.93 0 5.64-.27 11.27-.79 16.93-.57a27.23 27.23 0 0 1 10.54 2.06c3.71 1.71 6 4.54 6.31 8.7a9.71 9.71 0 0 1 -1.65 5.8 28.41 28.41 0 0 1 -6.65 7.18c-1.6 1.31-3.25 2.55-4.84 3.86a12.62 12.62 0 0 0 -1.43 1.49.83.83 0 0 1 -1.09.28.79.79 0 0 1 -.35-1.16 5 5 0 0 1 1.11-1.34c1.71-1.41 3.46-2.77 5.18-4.16a28.37 28.37 0 0 0 6.52-6.87c1.38-2.24 2-4.62 1.06-7.2a8.92 8.92 0 0 0 -5.14-5.14 25.05 25.05 0 0 0 -8.06-1.68c-6-.42-12 .17-18 .45a25.36 25.36 0 0 1 -4.85-.22c-1.54-.24-1.88-1.52-.88-2.72a10.9 10.9 0 0 1 4.23-2.85 51.5 51.5 0 0 1 10.55-3.17c1.91-.4 3.84-.71 5.76-1.06a.43.43 0 0 0 .33-.22 5.49 5.49 0 0 0 -.8-.06 54.82 54.82 0 0 0 -20.15 4.78 12.41 12.41 0 0 0 -4.71 3.46 7.58 7.58 0 0 0 -.86 1.38 1.85 1.85 0 0 0 .87 2.75 13.59 13.59 0 0 0 3.8 1.26c2.94.43 5.9.68 8.86.94 3.81.34 7.65.33 11.39 1.2a11.54 11.54 0 0 1 2.87 1c2.3 1.23 2.41 3.65.3 5.21a15.89 15.89 0 0 1 -5.33 2.34 110.23 110.23 0 0 1 -13.21 2.63c-7.34 1.09-14.69 2.15-22 3.29a44.13 44.13 0 0 0 -5.3 1.32 7.78 7.78 0 0 0 -1.82 1c-.45.28-.85.37-1.22 0a.78.78 0 0 1 .07-1.22 5.52 5.52 0 0 1 1.66-1.05 67.94 67.94 0 0 1 7.11-1.81c5.59-.93 11.2-1.7 16.81-2.51a136.72 136.72 0 0 0 16.57-3 41.42 41.42 0 0 0 5.1-1.94c.65-.27 1.31-.71 1.27-1.56s-.77-1.14-1.43-1.42a20 20 0 0 0 -5.92-1.18c-4.5-.38-9-.66-13.51-1.07a17.65 17.65 0 0 1 -6.71-1.71 3.72 3.72 0 0 1 -2.22-3.07 4.94 4.94 0 0 1 .9-3 13.05 13.05 0 0 1 5.03-4.27 46.27 46.27 0 0 1 13.75-4.51c1.38-.27 2.78-.46 4.33-.72a76.46 76.46 0 0 0 -14.36-3.23c0 .46-.06.87-.12 1.27a2.52 2.52 0 0 1 -2.14 2.37c-.41.09-.54.24-.52.64v2.28s-.35 1-.86 1-.82-.37-.83-1 0-1.57 0-2.35c0-.18-.23-.49-.39-.51a2.8 2.8 0 0 1 -2.33-3.08c0-.38 0-.77 0-1.24h-.73a78.31 78.31 0 0 0 -18.63 1.8c-.9.2-1.37 0-1.5-.56s.25-.95 1.21-1.12l7.76-1.38c.1-.39.09-.69-.44-.85a1.71 1.71 0 0 1 -1.2-1.59 6.34 6.34 0 0 1 1.17-4.48 1.55 1.55 0 0 1 2.75 0 6.46 6.46 0 0 1 1.23 4.42 1.89 1.89 0 0 1 -1.32 1.7c-.2.07-.35.29-.52.44l.11.23 4.06-.24c.17-.46.13-.72-.36-.88a1.75 1.75 0 0 1 -1.28-1.58 6.37 6.37 0 0 1 1.25-4.54 1.54 1.54 0 0 1 2.71 0 6.4 6.4 0 0 1 1.2 4.5 1.77 1.77 0 0 1 -1.3 1.63c-.41.13-.52.34-.36.82h4.38c.14 0 .3-.29.4-.48a19.56 19.56 0 0 1 1.27-2.4 1.91 1.91 0 0 1 3.33 0 13.87 13.87 0 0 1 1.4 2.9.81.81 0 0 0 .72.6 83.47 83.47 0 0 1 18.68 4.63 37.08 37.08 0 0 0 4 .76 4.93 4.93 0 0 0 3.25-.42 25.41 25.41 0 0 1 6.3-1.81l.46-.09a7.9 7.9 0 0 0 0-1.09.55.55 0 0 0 -.32-.38 2 2 0 0 1 -1.45-2 6.69 6.69 0 0 1 1.24-4.14 1.59 1.59 0 0 1 2.81 0 6.69 6.69 0 0 1 1.19 4.17 1.92 1.92 0 0 1 -1.39 1.93c-.76.25-.24.83-.4 1.25h2.31a1.23 1.23 0 0 1 1.21.6zm-43.54-2.07c0 1.51.25 1.84 1.55 1.91a7.14 7.14 0 0 0 1.22-.07.94.94 0 0 0 .9-.94 8.19 8.19 0 0 0 -1.33-5.05c-.37-.6-.6-.58-1 0a9.31 9.31 0 0 0 -1.34 4.15zm-12.7-8a5.24 5.24 0 0 0 -.87 2.62c0 .31.06.87.21.91a4 4 0 0 0 1.39 0c.08 0 .21-.23.21-.36a5.44 5.44 0 0 0 -.94-3.2zm51.87 2.53a5.43 5.43 0 0 0 -.92 3c0 .19.3.48.52.57a1.19 1.19 0 0 0 .83 0c.21-.08.51-.35.5-.53a5.54 5.54 0 0 0 -.93-3.04zm-45.92-2.93a5.11 5.11 0 0 0 -1 3.09c.07.47.51.62 1.33.51.37-.06.54-.23.53-.6a5.78 5.78 0 0 0 -.86-3z" fill="#1d1d1d"/><path d="m11.25 19.55c1.78-1.42 3.27-1.25 4.59.55a15.39 15.39 0 0 1 2.54 6.7 12.87 12.87 0 0 1 .17 2.84 3.94 3.94 0 0 1 -3.85 3.92h-.46v.69 4.05.45c0 .54-.28.94-.88.93s-.82-.4-.82-1c0-1.5 0-3 0-4.49 0-.52-.13-.7-.67-.76a4.06 4.06 0 0 1 -3.23-2v1.31 3.78a1.38 1.38 0 0 1 -.49.89.86.86 0 0 1 -.82-.07 1.47 1.47 0 0 1 -.36-.91c0-1.65 0-3.3 0-5-.47-.08-.92-.14-1.35-.25a3.82 3.82 0 0 1 -3-3.76 15.68 15.68 0 0 1 2.7-9.49c1.47-2.14 3.52-2.1 5.07 0 .24.57.52 1.07.86 1.62zm2 12.39c.55-.05 1-.05 1.5-.13a2.15 2.15 0 0 0 2.08-2.32 12.52 12.52 0 0 0 -.15-2.49 13.86 13.86 0 0 0 -2.21-5.85c-.78-1.15-1.47-1.15-2.23-.06a14.32 14.32 0 0 0 -2.43 8.49 2.1 2.1 0 0 0 1.92 2.19c.53.1 1.08.12 1.54.17zm-5.17-2.05a18.33 18.33 0 0 1 1.92-8.38c.06-.13.12-.33.06-.42-.52-.87-1-1.74-1.62-2.56a.74.74 0 0 0 -1.28 0 12.76 12.76 0 0 0 -1.52 2.27 14.5 14.5 0 0 0 -1.43 6.48 2.1 2.1 0 0 0 1.61 2.31 21 21 0 0 0 2.26.3z" fill="#1d1d1d"/><g fill="#ffd3ae"><path d="m23.23 10.23a9.31 9.31 0 0 1 1.35-4.14c.39-.59.62-.61 1 0a8.19 8.19 0 0 1 1.33 5.05.94.94 0 0 1 -.9.94 7.14 7.14 0 0 1 -1.22.07c-1.31-.08-1.6-.41-1.56-1.92z"/><path d="m10.53 2.2a5.44 5.44 0 0 1 .94 3.18c0 .13-.13.36-.21.36a4 4 0 0 1 -1.39 0c-.15 0-.23-.6-.21-.91a5.24 5.24 0 0 1 .87-2.63z"/><path d="m62.4 4.76a5.54 5.54 0 0 1 .93 3.08c0 .18-.29.45-.5.53a1.19 1.19 0 0 1 -.83 0c-.22-.09-.53-.38-.52-.57a5.43 5.43 0 0 1 .92-3.04z"/><path d="m16.48 1.83a5.78 5.78 0 0 1 .89 3c0 .37-.16.54-.53.6-.82.11-1.26 0-1.33-.51a5.11 5.11 0 0 1 .97-3.09z"/><path d="m13.27 31.94c-.46-.05-1-.07-1.54-.17a2.1 2.1 0 0 1 -1.92-2.19 14.32 14.32 0 0 1 2.43-8.49c.74-1.09 1.45-1.06 2.23 0a13.86 13.86 0 0 1 2.21 5.91 12.52 12.52 0 0 1 .17 2.52 2.15 2.15 0 0 1 -2.08 2.32c-.47.05-.95.05-1.5.1z"/><path d="m8.08 29.89a21 21 0 0 1 -2.26-.3 2.1 2.1 0 0 1 -1.61-2.31 14.5 14.5 0 0 1 1.43-6.48 12.76 12.76 0 0 1 1.47-2.27.74.74 0 0 1 1.28 0c.59.82 1.1 1.69 1.62 2.56.06.09 0 .29-.06.42a18.33 18.33 0 0 0 -1.87 8.38z"/></g></svg>