<svg viewBox="0 0 47.2 54.92" xmlns="http://www.w3.org/2000/svg"><g fill="#1d1d1d"><path d="m4.5 54.92c-.31-.09-.61-.17-.91-.27a5.28 5.28 0 0 1 -3.59-4.76c0-.1 0-.21 0-.32q0-22.09 0-44.19a5 5 0 0 1 3.18-4.92 5.23 5.23 0 0 1 2.07-.46q18.35 0 36.69 0a5.16 5.16 0 0 1 5.22 5.05c.07 3 0 6 0 9.06a.81.81 0 0 1 -.84.91c-.47 0-.76-.34-.76-.91 0-.75 0-1.5 0-2.35h-36a3 3 0 0 1 -.74-.06.78.78 0 0 1 .15-1.52 3.84 3.84 0 0 1 .59 0h36v-1.39c0-1.16 0-2.32 0-3.48a3.63 3.63 0 0 0 -3.71-3.7c-3.17 0-6.33 0-9.5 0h-26.7a3.68 3.68 0 0 0 -4 4v4.52h.59 3.23c.59 0 1 .31.94.79s-.36.8-.94.8h-3.83v29.28h7c.46 0 .82.12.95.61s-.25 1-.92 1h-7v7h43.87v-7h-6.74a2.33 2.33 0 0 1 -.53 0 .76.76 0 0 1 -.64-.86.72.72 0 0 1 .73-.71h1.23 6v-23.04c0-.71.3-1.1.82-1.09s.79.4.79 1.07q0 15.83 0 31.64a5.22 5.22 0 0 1 -4.31 5.26l-.18.09zm40.68-3.62h-43.18a3.76 3.76 0 0 0 3.47 2h36.68a3.67 3.67 0 0 0 3.03-2z"/><path d="m24.17 43.44c-7.37.02-13.17-5.24-13.68-11.92a13.11 13.11 0 0 1 24.51-7.67 1.42 1.42 0 0 1 -.86 2.21c-1.31.42-1.2.19-1.2 1.64v5.74c0 .55.15.89.71 1 1.54.28 2.1 1.32 1.06 2.88a13 13 0 0 1 -10.54 6.12zm7.11-12.68c-.27 0-.44.08-.62.09-.87 0-1.74.1-2.61.07a14 14 0 0 1 -4.41-1.23 8.63 8.63 0 0 0 -6.53.08c-1.54.62-3.06 1.27-4.6 1.88-.31.13-.39.27-.32.6a11.14 11.14 0 0 0 7.55 8.9 11.08 11.08 0 0 0 11.49-2.29 10 10 0 0 0 2.24-2.76 2.28 2.28 0 0 0 -.3-.12c-1.5-.5-1.89-1-1.89-2.63zm2.17-6.23a11.45 11.45 0 0 0 -13.93-5c-4.35 1.62-8.21 7.09-7.4 10.52l.45-.16 3.91-1.61a10.52 10.52 0 0 1 5.09-.75 15.34 15.34 0 0 1 4 1.15 9.22 9.22 0 0 0 4.73.59c1-.14 1-.13 1-1.13v-.32c-.02-2.24.09-2.41 2.15-3.29z"/><path d="m22.73 14c8.86.07 15.65 5.85 16.94 13.72a16.34 16.34 0 0 1 -32.25 5.28c0-.23-.07-.46-.1-.69a.8.8 0 0 1 .66-1 .77.77 0 0 1 .92.74 15.08 15.08 0 0 0 2.1 6.06 14.74 14.74 0 1 0 -2-9.96c0 .18-.05.35-.08.53a.81.81 0 0 1 -.91.77.84.84 0 0 1 -.68-1 15.26 15.26 0 0 1 1.33-4.78c3-6.27 8.05-9.38 14.07-9.67z"/><path d="m40.45 13.41h1.72a1.45 1.45 0 0 1 1.55 1.44 20.18 20.18 0 0 1 0 2.2 1.41 1.41 0 0 1 -1.5 1.42c-1.19 0-2.39 0-3.59 0a1.45 1.45 0 0 1 -1.51-1.53q0-1 0-2a1.49 1.49 0 0 1 1.56-1.55zm1.65 1.65h-3.33v1.76h3.33z"/><path d="m31 8.7a2.74 2.74 0 1 1 0-5.47 2.74 2.74 0 0 1 0 5.47zm-1.1-2.7a1.1 1.1 0 0 0 1.1 1.08 1.13 1.13 0 0 0 1.15-1.08 1.15 1.15 0 0 0 -1.15-1.16 1.11 1.11 0 0 0 -1.1 1.16z"/><path d="m18.79 6a2.72 2.72 0 0 1 -2.73 2.7 2.74 2.74 0 1 1 0-5.47 2.72 2.72 0 0 1 2.73 2.77zm-1.61 0a1.12 1.12 0 0 0 -1.12-1.12 1.15 1.15 0 0 0 -1.13 1.12 1.14 1.14 0 0 0 1.13 1.12 1.1 1.1 0 0 0 1.12-1.12z"/><path d="m8.58 8.7a2.74 2.74 0 0 1 0-5.47 2.74 2.74 0 1 1 0 5.47zm-1.11-2.7a1.1 1.1 0 0 0 1.13 1.08 1.13 1.13 0 0 0 1.12-1.08 1.15 1.15 0 0 0 -1.15-1.16 1.12 1.12 0 0 0 -1.1 1.16z"/><path d="m41.22 6a2.73 2.73 0 0 1 -2.71 2.7 2.74 2.74 0 1 1 0-5.47 2.72 2.72 0 0 1 2.71 2.77zm-1.61 0a1.12 1.12 0 0 0 -1.12-1.13 1.12 1.12 0 1 0 0 2.24 1.1 1.1 0 0 0 1.12-1.11z"/><path d="m23.54 8.7a2.74 2.74 0 1 1 2.73-2.7 2.75 2.75 0 0 1 -2.73 2.7zm0-1.61a1.13 1.13 0 1 0 -1.13-1.09 1.13 1.13 0 0 0 1.13 1.09z"/><path d="m36.3 30.36v2.2c0 .56-.3.89-.77.91a.82.82 0 0 1 -.83-.92c0-1.44 0-2.89 0-4.33 0-.58.34-.95.81-.95s.78.37.79.95 0 1.43 0 2.14z"/></g><path d="m45.18 51.3a3.67 3.67 0 0 1 -3 2h-36.72a3.76 3.76 0 0 1 -3.46-2z" fill="#ffd3ae"/><path d="m31.28 30.76v2.59c0 1.58.39 2.13 1.89 2.63a2.28 2.28 0 0 1 .3.12 10 10 0 0 1 -2.24 2.76 11.08 11.08 0 0 1 -11.49 2.29 11.14 11.14 0 0 1 -7.55-8.9c-.07-.33 0-.47.32-.6 1.54-.61 3.06-1.26 4.6-1.88a8.63 8.63 0 0 1 6.53-.08 14 14 0 0 0 4.41 1.23c.87 0 1.74 0 2.61-.07.18-.01.34-.05.62-.09z" fill="#ffd3ae"/><path d="m33.45 24.53c-2.06.88-2.17 1-2.17 3.3v.32c0 1 0 1-1 1.13a9.22 9.22 0 0 1 -4.73-.59 15.34 15.34 0 0 0 -4-1.15 10.52 10.52 0 0 0 -5.09.75l-3.89 1.61-.45.16c-.81-3.43 3.05-8.9 7.4-10.52a11.45 11.45 0 0 1 13.93 4.99z" fill="#ffd3ae"/><path d="m42.1 15.06v1.76h-3.33v-1.76z" fill="#ffd3ae"/><path d="m29.9 6a1.11 1.11 0 0 1 1.1-1.16 1.15 1.15 0 0 1 1.15 1.16 1.13 1.13 0 0 1 -1.15 1.08 1.1 1.1 0 0 1 -1.1-1.08z" fill="#ffd3ae"/><path d="m17.18 6a1.1 1.1 0 0 1 -1.12 1.12 1.14 1.14 0 0 1 -1.13-1.12 1.15 1.15 0 0 1 1.13-1.12 1.12 1.12 0 0 1 1.12 1.12z" fill="#ffd3ae"/><path d="m7.47 6a1.12 1.12 0 0 1 1.1-1.14 1.15 1.15 0 0 1 1.15 1.14 1.13 1.13 0 0 1 -1.12 1.08 1.1 1.1 0 0 1 -1.13-1.08z" fill="#ffd3ae"/><path d="m39.61 6a1.1 1.1 0 0 1 -1.12 1.11 1.12 1.12 0 1 1 0-2.24 1.12 1.12 0 0 1 1.12 1.13z" fill="#ffd3ae"/><path d="m23.54 7.09a1.13 1.13 0 1 1 1.12-1.09 1.14 1.14 0 0 1 -1.12 1.09z" fill="#ffd3ae"/></svg>