<svg viewBox="0 0 82.37 67.09" xmlns="http://www.w3.org/2000/svg"><path d="m29.92 36.11-.27 28.27c0 1.47-.43 2.32-2.53 2.59-2.61.34-3.4-.12-3.79-.84-.73-1.35-7.85-28.37-9-30.21s15.59.19 15.59.19z" fill="#074ea3"/><path d="m29.86 42.2.06-6.09s-16.79-2-15.61-.19c.27.44 1.37 3.92 2.19 6.62z" fill="#090028"/><path d="m3.48 26.37a3.16 3.16 0 0 0 -3.12 2.45 14.88 14.88 0 0 0 -.36 3.29 8.48 8.48 0 0 0 .5 3.54 3.1 3.1 0 0 0 2.75 1.77c5.74.21 26.41 1 30.72 2 5 1.18 21.82 8.64 21.82 8.64l-3.2-37.8s-15.44 12.55-25.24 14.49c-7.63 1.51-19.14 1.64-23.87 1.62z" fill="#d0d1de"/><path d="m14 37.87c2.14.11 4.37.22 6.55.35a25.63 25.63 0 0 1 -.13-12.52c-2.18.21-4.42.35-6.56.45a23.07 23.07 0 0 0 .14 11.72z" fill="#110239"/><path d="m72.2 27.93c.1 13.67-6.41 24.8-14.54 24.86s-14.82-11-14.93-24.63 6.4-24.79 14.54-24.86 14.82 10.97 14.93 24.63z" fill="#e5e6ed"/><path d="m71.1 27.94c.09 11.63-5.45 21.1-12.37 21.15s-12.61-9.33-12.7-21 5.45-21.09 12.37-21.09 12.6 9.31 12.7 20.94z" fill="#110239"/><path d="m55.91 30.08c.3-4.14-2.41-7.71-6-8a6 6 0 0 0 -3.47.85 34.82 34.82 0 0 0 -.44 5.21 33.53 33.53 0 0 0 1.18 8.61 5.51 5.51 0 0 0 1.57.35c3.67.27 6.87-2.88 7.16-7.02z" fill="#fbb040"/><path d="m34 15a1.94 1.94 0 0 1 .16-1.27c-.21 0-.53.07-.51-.06s.06-.41-.06-.38a.81.81 0 0 0 -.32.16 1.53 1.53 0 0 1 -.74.18c-.08.29-.33.73-.17 1 .08.16.51.09.7.16a3.47 3.47 0 0 0 .94.21z" fill="#f88667"/><path d="m28 1.61a9.78 9.78 0 0 0 -4.28 1.06l1.15 5a5.21 5.21 0 0 1 2.79-.61z" fill="#fbb040"/><path d="m26.79 4.23c0-.83.06-1.66.08-2.5a7.36 7.36 0 0 1 1.13-.12l-.34 5.45c-.46-.72-.69-.56-.78-.65-.01-.72-.1-1.41-.09-2.18z" fill="#e87503"/><path d="m37.94 1.87s-6.52-2.56-10.79-1.69l-.28 6.23s3.79-.84 9 1.46z" fill="#fbb040"/><path d="m27.54 8.96h15.63v.56h-15.63z" fill="#110239" transform="matrix(.3280424 -.944663 .944663 .3280424 15.03 39.61)"/><path d="m32.91 15v-1.77s-5.27 0-7.48-.59-5.16-3.23-6.34-2.81-1.93 1.62-.46 2.76 4.93 2.14 6.43 2.37c1.04.16 7.02.04 7.85.04z" fill="#074ea3"/><path d="m24.1 13.89a16.7 16.7 0 0 1 -5.11-4c-1.12.45-1.78 1.61-.36 2.72s4.93 2.14 6.43 2.37c.51.08 2.22.09 3.92.08a17.13 17.13 0 0 1 -4.88-1.17z" fill="#00547a" opacity=".52"/><path d="m24.05 35.43s-1 1.66-.87 2 3.72 2.47 4.2 2.31.58-.74-.06-1.31-1.14-.66-1.53-1.16 0-1.56 0-1.56z" fill="#110239"/><path d="m18 21.34a2.24 2.24 0 0 0 1.48.49c.75-.1 8.11.67 8.87 1.29s-2.3 13.08-2.3 13.08l-2.56-.42s.92-9.11.77-9.18-4-.05-10.61-.05c-1.61 0-3.41-3.38-1.37-5.74z" fill="#fbb040"/><path d="m19.19 7.47a3.11 3.11 0 0 1 -.69-.47 5.11 5.11 0 0 1 -1.16 2.88 5.78 5.78 0 0 0 2.91.37 9.53 9.53 0 0 1 .12-2.64 2.8 2.8 0 0 1 -1.18-.14z" fill="#f88667"/><path d="m18.41 9.63a1.93 1.93 0 0 1 1.83-1.28 4.11 4.11 0 0 1 .13-.71 2.8 2.8 0 0 1 -1.18-.17 3.11 3.11 0 0 1 -.69-.47 5.11 5.11 0 0 1 -1.16 2.88 5.9 5.9 0 0 0 .95.29 2.42 2.42 0 0 1 .12-.54z" fill="#e45940"/><path d="m18.73 3.15s1.89-.59 2.49-.22a2.7 2.7 0 0 1 1 2.23c-.11.68.68 1.48.7 1.73s-.6.34-.62.41-.05 1.33-.88 1.54a3.75 3.75 0 0 1 -3.29-1.34c-.54-.71-1.13-3.93.6-4.35z" fill="#f88667"/><path d="m22.25 3.23c-.1-.1-.35-.26-.42-.39a1.92 1.92 0 0 0 -.14-.33c-.21-.3-.26-.53-1.12-.8a2.71 2.71 0 0 0 -2.3.51 2.11 2.11 0 0 0 -.55.64c0 .07-.17.28-.14.35s.32.17.4.22a3.57 3.57 0 0 1 .43.34c.86.7 2.21 1.45 3.15.48a4.59 4.59 0 0 0 .36-.41 2.58 2.58 0 0 1 .26 1.25 1.13 1.13 0 0 0 .39-.6 1.32 1.32 0 0 0 -.32-1.26z" fill="#110239"/><path d="m18.26 3.17a1.62 1.62 0 0 0 -.9 0 1.1 1.1 0 0 0 -.85.95 5.27 5.27 0 0 0 -.09.89 3.41 3.41 0 0 0 .23 1.34 3.15 3.15 0 0 0 .78 1.25c.34.3 1 .65 1.32.52a2.56 2.56 0 0 0 .25-1.23c0-.23-.15-.23-.33-.33s-.63-.51-.41-.87c.31-.52.89-.28 1.1.43 0 0 .23.41.36.34a2.6 2.6 0 0 0 -1.46-3.29z" fill="#110239"/><path d="m18.5 5.76a.51.51 0 0 1 .56.15c.22.26.12.68-.11.53s-.13-.3-.17-.43a.42.42 0 0 0 -.28-.25z" fill="#e45940"/><path d="m11.37 20.65s2.63 2.07 8.19 1.15a12.27 12.27 0 0 1 .44-3.14 29.32 29.32 0 0 0 1.18-6.18 3.34 3.34 0 0 0 -1-2.61s-1 1-2.59-.3a6.8 6.8 0 0 0 -4.3 4 35.82 35.82 0 0 0 -1.92 7.08z" fill="#074ea3"/><path d="m18 12.17c-1.43 1.54-.05 5.34 1.75 7.46a9.05 9.05 0 0 1 .23-1c.25-.82.55-2.05.79-3.26a2.82 2.82 0 0 1 -1.12-1.37c-.55-1.31-.91-2.22-1.65-1.83z" fill="#00547a" opacity=".52"/><path d="m29.59 22.78a1.55 1.55 0 0 0 .67.35.82.82 0 0 1 .35.08 1.42 1.42 0 0 0 .38.14.8.8 0 0 1 .36.17c.11.13-.1.17-.24.18s-.57-.26-.7-.15.4.41.51.46.43 0 .68 0 .22 0 .12.18-.23.11-.35.12a1.52 1.52 0 0 1 -.73-.12 1.71 1.71 0 0 0 .67.18c.13 0 .71 0 .71.17 0 .42-1.27.15-1.46 0a2.05 2.05 0 0 0 .67.23c.14 0 .46.09.28.27s-.89-.17-1.2-.31a2.46 2.46 0 0 0 .57.34c.26.14.07.28-.22.19a4.32 4.32 0 0 1 -.41-.19 2.26 2.26 0 0 1 -1-1.07c-.1-.18-.48-.41-.44-.58.07-.3.54-.48.78-.64z" fill="#f88667"/><path d="m30 22.52-1.09 1.48s-6.85-3-7.47-3.75a38.48 38.48 0 0 1 -2.94-4.45c-.73-1.77-1.64-3.89 0-4.26.89-.2 1.47 0 2 1.34a36.75 36.75 0 0 0 3 5.48c.29.34 6.5 4.16 6.5 4.16z" fill="#074ea3"/><path d="m34.81 13.72c.09.15-.17.82-.43 1.09a.47.47 0 0 1 -.63 0c-.22-.13-.47-.18-.5-.3 0-.5.41-.12.61-.05 0 0-.55-.28-.54-.51 0-.45.7.07.89.15a1.13 1.13 0 0 1 -.53-.35.17.17 0 0 1 0-.26c.15-.13.73.28.73.28s-.53-.23-.36-.42.28 0 .38 0a.63.63 0 0 1 .38.37z" fill="#f88667"/><path d="m33.51 13.7.19-.06c0-.16.67-.21.81-.28.43-.23.25-.5.06-.44s-.44.14-.55.19a2.3 2.3 0 0 1 -.45.05 2.85 2.85 0 0 0 -.55.38c-.23.14.25.26.49.16z" fill="#f88667"/><g fill="#d0d1de"><path d="m81.41 18.75c.15.38-1.13 1.21-2.85 1.84s-3.23.83-3.37.45 1.14-1.22 2.86-1.85 3.22-.83 3.36-.44z"/><path d="m78.29 11c.16.38-1.07 1.27-2.75 2s-3.17 1-3.34.64 1.07-1.28 2.75-2 3.17-1.01 3.34-.64z"/><path d="m80.6 39.41c-.12.39-1.64.27-3.39-.27s-3.06-1.3-2.94-1.69 1.64-.28 3.39.27 3.06 1.28 2.94 1.69z"/><path d="m77.42 47.78c-.15.38-1.65.14-3.35-.54s-2.95-1.55-2.8-1.93 1.65-.14 3.35.54 2.96 1.55 2.8 1.93z"/><path d="m82.37 29.18c0 .41-1.52.66-3.35.57s-3.3-.51-3.28-.92 1.52-.67 3.35-.57 3.3.5 3.28.92z"/></g></svg>