<svg viewBox="0 0 67.23 59.18" xmlns="http://www.w3.org/2000/svg"><path d="m39.77 55.96h-12.31l1.01-14.84h10.29z" fill="#110239"/><path d="m41.38 53.58a.81.81 0 0 0 -.67-.35h-14.2a.81.81 0 0 0 -.67.35l-1.84 2.78a.8.8 0 0 0 .67 1.25h17.9a.8.8 0 0 0 .67-1.25z" fill="#110239"/><rect fill="#110239" height="45.06" rx="3.47" width="67.23"/><path d="m3.1 2.99h61.03v38.63h-61.03z" fill="#e87503"/><path d="m38.7 29.12h3.35v12.46h-3.35z" fill="#d0d1de"/><path d="m38.7 29.12h3.35v3.9h-3.35z" fill="#9698b5"/><path d="m51.09 9.79h-19.77v20.1h27.68v-12.23a7.87 7.87 0 0 0 -7.91-7.87z" fill="#fbb040"/><path d="m39.26 29.89h-15.89v-12.23a7.87 7.87 0 0 1 7.87-7.87h.16a7.86 7.86 0 0 1 7.86 7.87z" fill="#e87503"/><path d="m37.9 28.17h-13.17v-10.17a6.52 6.52 0 0 1 6.52-6.52h.13a6.52 6.52 0 0 1 6.52 6.52z" fill="#110239"/><path d="m18.14 28.34h15.07v1.55h-15.07z" fill="#fd425f"/><path d="m50.57 22.45c.47 0 .94-.76.94-1.85a3.64 3.64 0 0 0 -3.78-3.89 3.92 3.92 0 0 0 -3.91 3.92 3.67 3.67 0 0 0 3.77 3.73 3.79 3.79 0 0 0 2.16-.7l.53.92a4.9 4.9 0 0 1 -2.69.85 4.75 4.75 0 0 1 -4.91-4.8 5 5 0 0 1 5-5 4.77 4.77 0 0 1 4.91 4.89c0 1.72-.93 2.82-2.21 2.82a1.21 1.21 0 0 1 -1.35-.88v-.14a2.05 2.05 0 0 1 -1.71.91 2.57 2.57 0 0 1 -2.51-2.66 2.47 2.47 0 0 1 2.35-2.7 2 2 0 0 1 1.54.71v-.58h1.41v3.86c.03.44.2.59.46.59zm-4.18-1.9c0 .76.43 1.43 1.11 1.43s1.14-.65 1.14-1.42a1.14 1.14 0 1 0 -2.25 0z" fill="#fff"/><path d="m34.54 32.52c.11-3.13 2.24-5.78 3.36-7v-.66h-10.33c-2.11 0-3.37 1.07-4.51 2.85a9.75 9.75 0 0 0 -1.65 4.78c-.15 4.24.77 6.3-2 9.11s-4 4.42-3.18 9h13.14c-.82-4.59.41-6.19 3.17-9s1.84-4.84 2-9.08z" fill="#e5e6ed"/><g fill="#9a94ab"><path d="m36.06 25.86h-9.67l-.37.43h9.67z"/><path d="m34.54 27.88h-9.67l-.26.43h9.67z"/><path d="m33.52 29.91h-9.67c-.05.13-.1.28-.14.42h9.67c.04-.14.09-.33.14-.42z"/><path d="m33 31.93h-9.65v.42h9.65c0-.14 0-.28 0-.42z"/><path d="m33 34h-9.71v.42h9.71z"/><path d="m33 36h-9.67v.42h9.67c0-.16 0-.31 0-.42z"/><path d="m32.91 38h-9.67c0 .15 0 .29-.07.43h9.66c.03-.15.06-.29.08-.43z"/><path d="m32.23 40h-9.67a3.78 3.78 0 0 1 -.26.43h9.7a3.78 3.78 0 0 0 .23-.43z"/><path d="m30.59 42h-9.67l-.4.42h9.67z"/><path d="m28.85 44.06h-9.67l-.29.42h9.67z"/><path d="m27.84 46.08h-9.67c0 .14-.08.28-.11.42h9.67c.03-.14.07-.28.11-.42z"/><path d="m27.56 48.1h-9.67v.43h9.67c0-.15 0-.29 0-.43z"/></g><path d="m22.61 29.44c-.09-.14-.63.31-.71.42a4.28 4.28 0 0 0 -.4.53c-.09.19-.17.37-.27.55a1.86 1.86 0 0 0 -.07.34 2.74 2.74 0 0 1 -.29.44s0 .06-.06.11c.22.19.23.35.35.6a1.5 1.5 0 0 1 .27-.22c.09-.06.63-.26.72-.31a3.06 3.06 0 0 0 .53-.3c.05-.05.29-.12.26-.21s-.35-.08-.43-.07a1.64 1.64 0 0 1 -.59.12c-.09 0-.23-.15-.17-.37a1 1 0 0 1 .34-.48c.09-.08.44-.41.54-.49.29-.25.16-.43-.1-.27-.05 0-.47.37-.51.39l.11-.12c.16-.19.58-.5.48-.66z" fill="#f88667"/><path d="m11.12 24.7.06.11a6.25 6.25 0 0 0 .72 1c.17.18.45.33.59.51l.18.2a15.89 15.89 0 0 0 -.88 2.48s-1.79-.53-2.23-1.39a18.36 18.36 0 0 0 1.56-2.91z" fill="#f88667"/><path d="m11.4 27.87a2.63 2.63 0 0 0 -.5-1.51 3.62 3.62 0 0 0 -.36-.42 8.4 8.4 0 0 0 .58-1.24l.06.11a6.25 6.25 0 0 0 .72 1c.17.18.45.33.59.51l.18.2a15.89 15.89 0 0 0 -.88 2.48 6.84 6.84 0 0 1 -.69-.26 1.33 1.33 0 0 0 .3-.87z" fill="#e45940"/><path d="m4.66 56.82s-.27 1.76 0 2 3.94.51 4.26.19.16-.88-.61-1.12-1.23 0-1.74-.27-.35-1-.35-1z" fill="#110239"/><path d="m10.84 56.82s-.26 1.76 0 2 4 .51 4.27.19.15-.88-.61-1.12-1.24 0-1.75-.27-.35-1-.35-1z" fill="#110239"/><path d="m4.07 46.88a54.45 54.45 0 0 1 -.89-10.05 4.53 4.53 0 0 1 1.82.05c1.17.32 2.34.61 3.51.91a70.43 70.43 0 0 0 -1.51 9.55c0 1.61-.43 10-.43 10h-2.12c-.23-1.19-.3-10.03-.38-10.46z" fill="#fbb040"/><path d="m6.65 37.34c.62.18 1.25.3 1.87.42a76.05 76.05 0 0 0 -1.52 9.54c-.41-.79-2-3.57-2.86-5.69a12 12 0 0 1 -.9-4.47 8.61 8.61 0 0 1 3.41.2z" fill="#e87503"/><path d="m5.22 36.81c.79.23 2.22.55 3.3.89.82 1.84 3.1 6.75 3.54 8.71.6 2.72.6 10.83.6 10.83h-2.05s-1.41-9.17-1.61-9.81c-1-2.58-2.83-4.36-3.54-5.58a15.23 15.23 0 0 1 -2.16-5.44c.62.15 1.26.21 1.92.4z" fill="#fbb040"/><path d="m10.25 29.87c.44-.88.09-1.5 1-1.2 1.53.5 3 3.81 3.89 4 1.24.3 5.8-1.28 5.8-1.28l.47 1.16s-6 2.63-7 2.38-3.57-3.06-4.2-4a1 1 0 0 1 .04-1.06z" fill="#d0d1de"/><path d="m10.25 29.87c.44-.88.09-1.5 1-1.2 1.53.5 3 3.81 3.89 4 1.24.3 5.8-1.28 5.8-1.28l.47 1.16s-6 2.63-7 2.38-3.57-3.06-4.2-4a1 1 0 0 1 .04-1.06z" fill="#b8b9cd"/><path d="m9.35 39a15.94 15.94 0 0 1 -3.67-.68c-1.33-.4-2.48-1.15-2.68-1.72 0 0 2.1-5.49 3.56-7.37a4.52 4.52 0 0 1 3.16-1.91 5.7 5.7 0 0 0 2.15 1.25s-1 4.07-1.39 5.69-1.13 4.74-1.13 4.74z" fill="#d0d1de"/><path d="m8.92 32.86a7.74 7.74 0 0 1 .14-2.73l.26.21a6.11 6.11 0 0 0 1.59 1.23l.25.07c-.24 1-.49 2-.66 2.62-.45 1.61-1.15 4.74-1.15 4.74s-.52 0-1.28-.13a14.33 14.33 0 0 0 .85-6.01z" fill="#b8b9cd"/><path d="m11.26 22.21s1.47-1 2.34-.46 1.36 1 1.28 1.45a11 11 0 0 0 -.38 2c0 .49.26 1.23.16 1.39s-.64-.08-.71 0-1 1.06-1.25 1.08a4.27 4.27 0 0 1 -1.58-2.3c.02-.74-.45-2.29.14-3.16z" fill="#f88667"/><path d="m13 23.36c.13.31.58.85 1.78.95s2-2.31-.08-3.27-2.39-.2-2.85-.25a1.58 1.58 0 0 0 -1.25.32 2.2 2.2 0 0 0 -.69 2.71c.48 1.37 1.19 1.58 1.19 1.58.17-.23.39-.66.24-.91a1.47 1.47 0 0 1 -.24-.35.45.45 0 0 1 .74-.45c.2.16.09.61.15.83s.16.24.25.25.53-.36.47-1c-.01-.42.2-.72.29-.41z" fill="#110239"/><path d="m18.73 39.19a2 2 0 0 1 .22.07.91.91 0 0 0 .49.12 2.09 2.09 0 0 1 .87.12c.12.07.85.57.52.82a.28.28 0 0 1 -.19 0l-.26-.23a1.34 1.34 0 0 1 .17.17.32.32 0 0 1 .08.12.2.2 0 0 1 -.18.2c-.08 0-.11-.09-.15-.14 0 .07.15.14 0 .28s-.17 0-.24 0a.23.23 0 0 1 -.07-.07l.13.16c.05.09-.2.25-.35.17s-.25-.26-.3-.26h-.19a1.26 1.26 0 0 1 -.5-.32l-.25-.25a1.77 1.77 0 0 1 -.22-.3 1.19 1.19 0 0 0 .42-.66z" fill="#f88667"/><path d="m18.38 40.31.95-1.31s-3.45-3.27-4.74-4.88-2.53-4.74-3.61-5-2.26.18-1.78 1.78 3.48 4 4.07 4.72a64.35 64.35 0 0 0 5.11 4.69z" fill="#d0d1de"/></svg>