<svg viewBox="0 0 66.99 70.2" xmlns="http://www.w3.org/2000/svg"><g fill="#110239"><path d="m39.63 66.35h-12.27l1.01-14.79h10.25z"/><path d="m41.24 64a.81.81 0 0 0 -.67-.35h-14.15a.81.81 0 0 0 -.67.35l-1.85 2.75a.8.8 0 0 0 .66 1.25h17.86a.8.8 0 0 0 .67-1.25z"/><rect height="44.9" rx="3.45" width="66.99" y="10.59"/></g><path d="m3.08 13.56h60.82v38.49h-60.82z" fill="#e87503"/><path d="m56 63.47c-7.07-1.3-15.31-2.86-15.33-.12 0 2.58 3.11 4.59 5.81 5.87a23.73 23.73 0 0 1 4.69-.91c2.77-.43 5.48 0 8.26 0a11.07 11.07 0 0 0 4.41-3.27s-2.44-.56-7.84-1.57z" fill="#616161"/><path d="m50 68.38c.23.11-2.47 1.39-2.26 1.5 1.16.36 12.54.43 13.59.16 1.8-.47-3.35-2.71-1.55-3.08 3-2.09 4.62-4.83 3-5.17-1.81-.39-4.63.56-6.46.76a7 7 0 0 1 -3.52-.23l-4.44-.49c-4.56.91-5.5 2.55-5.55 2.53 0 .65 3.33 2 6.31 3.57a3.08 3.08 0 0 1 .88.45z" fill="#00bad1"/><path d="m50 68.38c.23.11-2.47 1.39-2.26 1.5 1.16.36 12.54.43 13.59.16 1.8-.47-3.35-2.71-1.55-3.08 3-2.09 4.62-4.83 3-5.17-1.81-.39-4.63.56-6.46.76a7 7 0 0 1 -3.52-.23l-4.44-.49c-4.56.91-5.5 2.55-5.55 2.53 0 .65 3.33 2 6.31 3.57a3.08 3.08 0 0 1 .88.45z" fill="#e87503"/><path d="m48.31 66.63 1.44 2s-1.57 1.09-2 1.29-4 .34-4.91-.38-1.12-1.47-.69-1.87a5.43 5.43 0 0 1 2.51-.75c1.43-.23 3.65-.29 3.65-.29z"/><path d="m47.43 66.7.83 3s14-.21 15.47-2.35c1.87-1.94 2.63-5.76-1.15-5.83a8.2 8.2 0 0 0 -2.44.49c-5.14 1.68-12.71 4.69-12.71 4.69z" fill="#fbb040"/><path d="m62.9 66.5a4.58 4.58 0 0 1 -2.32-.87 10.08 10.08 0 0 0 -2.9-1.14 23.79 23.79 0 0 1 -2.52-.76c-4.07 1.32-7.73 3-7.73 3l.65 2.27 1.08.28a8 8 0 0 1 1.27.2l.26.05c4-.21 12.13-.84 13.21-2.42a9.11 9.11 0 0 0 .65-1 7.21 7.21 0 0 1 -1.65.39z" fill="#00547a" opacity=".32"/><path d="m59.48 66.81-1.21 1.54s2 1.2 2.39 1.4 3.28.33 4.19-.32 1.11-1.37.71-1.76a5.19 5.19 0 0 0 -2.37-.8 21.45 21.45 0 0 0 -3.71-.06z"/><path d="m60.89 66.43-1.25 3.45s-17.19-1.36-18.59-3.76c-.83-1.43-1-3.67.85-4.46a6.48 6.48 0 0 1 4.9 0c5.54 1.93 14.09 4.77 14.09 4.77z" fill="#fbb040"/><path d="m54.13 43.56h-2.43s-.35 3.32-1 3.71c0 0-.78 3.92 2.2 3.92 3.62 0 2.21-3.92 2.21-3.92-.63-.39-.98-3.71-.98-3.71z" fill="#e45940"/><path d="m56.08 44.21c-.34-.39-.74.2-.74.2s.55-2.19 0-3.15-2.34-.46-2.34-.46-1.81-.5-2.37.46 0 3.15 0 3.15-.4-.59-.74-.2.56 1.37.76 1.48c0 0 1.3 2.43 2.35 2.43s2.34-2.43 2.34-2.43c.18-.11 1.08-1.09.74-1.48z" fill="#f88667"/><path d="m52.52 41.67s-1.36.24-1.52 1a2.88 2.88 0 0 0 .08 1.09 7.48 7.48 0 0 1 .11 1.24.2.2 0 0 1 -.17 0 2.8 2.8 0 0 1 -.47-.56c-.25-.38-.63-.32-.74-.08 0 0-.3-3.6 1.21-3.72s1.5 1.03 1.5 1.03z" fill="#110239"/><path d="m53.41 41.67s1.37.24 1.52 1a3.09 3.09 0 0 1 -.07 1.09 6.62 6.62 0 0 0 -.12 1.24.23.23 0 0 0 .18 0 2.75 2.75 0 0 0 .46-.56c.26-.38.63-.32.74-.08 0 0 .3-3.6-1.2-3.72s-1.51 1.03-1.51 1.03z" fill="#110239"/><path d="m55.42 40.77a1.11 1.11 0 0 0 -.64-1 3.69 3.69 0 0 0 -3.08 0c-1.06.53-1.39.65-1.7.48s-.11-.36-.11-.36-.7 0-.66 1.08a3 3 0 0 0 3.09 2.42c2.68.04 3.51-1.82 3.1-2.62z" fill="#110239"/><path d="m55.12 47.27c-.13 3.33-2.21 3-2.21 3s-2.07.34-2.2-3a22.43 22.43 0 0 0 -4.93 2 31.73 31.73 0 0 1 .73 6.14l1.9 7.34 4.5-.83 4.51.83 1.89-7.34a32.19 32.19 0 0 1 .74-6.14 22.43 22.43 0 0 0 -4.93-2z" fill="#d0d1de"/><path d="m59 51.19c-2.06 1.1-3.06 3.63-5.06 4.87s-3.54-1.31-4.54-2.66a7.77 7.77 0 0 0 -3.32-2.63 29.84 29.84 0 0 1 .44 4.64l1.9 7.34 4.5-.56 4.51.56 1.89-7.34a32.19 32.19 0 0 1 .43-4.57c-.27.16-.52.23-.75.35z" fill="#b8b9cd"/><path d="m45.78 49.27s-3.78 8.82-3.78 10.04c-.08 2.35 5.06 3.3 7.41 2.87l1-.18s-3.55-12.79-4.63-12.73z" fill="#d0d1de"/><path d="m60 49.27s3.79 8.82 3.8 10c0 2.37-5.06 3.3-7.41 2.87l-1-.18s3.61-12.75 4.61-12.69z" fill="#d0d1de"/><path d="m47.38 52.37a6.06 6.06 0 0 1 -.16 1.29c-.36 1.6-.93 3.27-.33 4.9a25.65 25.65 0 0 0 1.85 3.66 4.45 4.45 0 0 0 .65 0l1-.18s-1.64-5.9-3.01-9.67z" fill="#b8b9cd"/><path d="m57.8 62.13a5.67 5.67 0 0 0 .45-2.36c0-1.63-.06-3.27 0-4.9 0-.71 0-1.4.07-2.07-1.32 3.77-2.84 9.2-2.84 9.2l1 .18a4 4 0 0 0 1.32-.05z" fill="#b8b9cd"/><path d="m47.01 62.1h11.81v.7h-11.81z" fill="#110239"/><path d="m60.56 53.92h-15.29a.71.71 0 0 0 -.68.92c.14.92 2.07 7.35 2.46 7.35h11.73c.34 0 2.32-6.43 2.46-7.35a.71.71 0 0 0 -.68-.92z" fill="#110239"/><path d="m53.55 58.37a.64.64 0 1 1 -.64-.63.64.64 0 0 1 .64.63z" fill="#fff"/><path d="m13 32.81s19.17 24.19 41 0c-21.83-24.14-41 0-41 0z" fill="#110239"/><path d="m15.9 32.81s16.46 20.76 35.19 0c-18.73-20.76-35.19 0-35.19 0z" fill="#fff"/><circle cx="33.49" cy="32.81" fill="#fbb040" r="9.09" transform="matrix(.22563124 -.97421278 .97421278 .22563124 -6.03 58.03)"/><path d="m39.22 32.81a5.73 5.73 0 1 1 -5.73-5.73 5.72 5.72 0 0 1 5.73 5.73z" fill="#110239"/><path d="m40.27 29.2a2.33 2.33 0 1 1 -2.33-2.33 2.33 2.33 0 0 1 2.33 2.33z" fill="#fff"/><rect fill="#e5e6ed" height="18.32" rx="1.23" width="27.09" x="5.56"/><path d="m6.79 1.46h24.62v15.4h-24.62z" fill="#110239"/><path d="m15.79 5.6v7.54l7.34-3.77z" fill="#fbb040"/></svg>