<svg viewBox="0 0 70.75 66.9" xmlns="http://www.w3.org/2000/svg"><path d="m63.24 5.87a19.09 19.09 0 0 1 7.51 4.29l-4.83 8.84a10.27 10.27 0 0 0 -5-2.66z" fill="#fbb040"/><path d="m64.11 11.46c.42-1.57.77-3.17 1.18-4.76a15.23 15.23 0 0 0 -2.05-.83l-2.24 10.45c1.27-1.09 1.6-.68 1.83-.79.34-1.36.91-2.71 1.28-4.07z" fill="#e87503"/><path d="m44.34 1.06s13.66-1.36 21.24 2.57l-2.78 11.9s-6.7-3.6-17.8-2.06z" fill="#fbb040"/><path d="m44.32 0h1.09v46.81h-1.09z" fill="#110239"/><path d="m43.49 45.39h2.76v2.2h-2.76z" fill="#110239"/><path d="m42.41 47.11h4.92v1.1h-4.92z" fill="#110239"/><path d="m24.78 20.71v7.8h1.94v-5.51a1 1 0 0 1 1-1h8.38a1 1 0 0 1 1 1v5.5h1.95v-7.8a1 1 0 0 0 -1-1h-12.27a1 1 0 0 0 -1 1.01z" fill="#d0d1de"/><rect fill="#e87503" height="41.03" rx="3.42" width="63.83" y="25.87"/><path d="m63.83 37.3v-8a3.42 3.42 0 0 0 -3.42-3.42h-57a3.42 3.42 0 0 0 -3.41 3.41v8a8.8 8.8 0 0 0 8.81 8.81h46.19a8.81 8.81 0 0 0 8.83-8.8z" fill="#2d2d2d"/><path d="m29.88 44.26h4.06v4.61h-4.06z" fill="#ededed"/><path d="m31.26 46.47h1.31v1.14h-1.31z" fill="#2d2d2d"/><path d="m15.26 5.55h-2.13s-.31 2.91-.87 3.26c0 0-.68 3.43 1.94 3.43 3.17 0 1.93-3.43 1.93-3.43-.56-.35-.87-3.26-.87-3.26z" fill="#f88667"/><path d="m15.26 5.55h-2.13s-.31 2.91-.87 3.26c0 0-.68 3.43 1.94 3.43 3.17 0 1.93-3.43 1.93-3.43-.56-.35-.87-3.26-.87-3.26z" fill="#e45940"/><path d="m17 6.12c-.29-.34-.65.18-.65.18s.49-1.93 0-2.77-2.07-.4-2.07-.4-1.58-.44-2.07.4 0 2.77 0 2.77-.36-.52-.65-.18.48 1.2.66 1.3c0 0 1.14 2.13 2.06 2.13s2.06-2.13 2.06-2.13c.14-.1.93-.96.66-1.3z" fill="#f88667"/><path d="m13.85 3.89s-1.2.21-1.33.86a2.6 2.6 0 0 0 .06 1 6.8 6.8 0 0 1 .11 1.06.18.18 0 0 1 -.16 0 2.43 2.43 0 0 1 -.41-.49c-.22-.33-.55-.28-.64-.06 0 0-.27-3.16 1-3.27s1.37.9 1.37.9z" fill="#110239"/><path d="m14.63 3.89s1.2.21 1.33.86a2.4 2.4 0 0 1 -.06 1 5.63 5.63 0 0 0 -.1 1.06.16.16 0 0 0 .15 0 2.43 2.43 0 0 0 .41-.49c.23-.33.55-.28.65-.06 0 0 .26-3.16-1.06-3.27s-1.32.9-1.32.9z" fill="#110239"/><path d="m16.61 3.36a1.46 1.46 0 0 0 -.87-1 4 4 0 0 0 -2.54-.15 1.66 1.66 0 0 0 -1.07 2.68 2 2 0 0 0 1.55.59c2.32-.05 3.32-1.41 2.93-2.12z" fill="#110239"/><path d="m16.13 8.81c-.11 2.92-1.93 2.62-1.93 2.62s-1.82.3-1.94-2.62a19.41 19.41 0 0 0 -4.32 1.75 28.28 28.28 0 0 1 .64 5.44l1.66 6.43 4 .2 3.95-.2 1.62-6.43a28.28 28.28 0 0 1 .64-5.39 19.22 19.22 0 0 0 -4.32-1.8z" fill="#074ea3"/><path d="m19.52 12.25c-1.8 1-2.68 3.18-4.44 4.26s-3.1-1.14-4-2.32a6.88 6.88 0 0 0 -2.91-2.32 27.4 27.4 0 0 1 .41 4.13l1.66 6.43 4 .2 3.95-.2 1.62-6.43a26.79 26.79 0 0 1 .38-4c-.19 0-.46.14-.67.25z" fill="#00547a" opacity=".52"/><path d="m21.53 25c0-2.26-2.81-3.74-2.81-3.74h-9.41s-2.8 1.47-2.8 3.74a11.31 11.31 0 0 0 .22 1.75h3.13c-.13.23-.24.44-.33.62l-.09.16h2.27c.17 0 .12.07.07-.18s-.29-.57-.07-.94a2.19 2.19 0 0 1 1.35-.55h1.69a3.32 3.32 0 0 1 .55.09c.16 0 .63 0 .84.25a1.17 1.17 0 0 1 .16.55 5.42 5.42 0 0 1 -.09.78h2.85a8.6 8.6 0 0 1 -.54-.78h2.78a11.63 11.63 0 0 0 .23-1.75z" fill="#fd425f"/><path d="m21.53 25c0-2.26-2.81-3.74-2.81-3.74h-9.41s-2.8 1.47-2.8 3.74a11.31 11.31 0 0 0 .22 1.75h3.13c-.13.23-.24.44-.33.62l-.09.16h2.27c.17 0 .12.07.07-.18s-.29-.57-.07-.94a2.19 2.19 0 0 1 1.35-.55h1.69a3.32 3.32 0 0 1 .55.09c.16 0 .63 0 .84.25a1.17 1.17 0 0 1 .16.55 5.42 5.42 0 0 1 -.09.78h2.85a8.6 8.6 0 0 1 -.54-.78h2.78a11.63 11.63 0 0 0 .23-1.75z" fill="#e87503"/><path d="m7.94 10.56s-3.6 7.77-3.34 8.81c.07.25 4.44 2.9 6.5 2.52l.84-.16s-3.06-11.22-4-11.17z" fill="#074ea3"/><path d="m20.45 10.56s3.59 7.77 3.33 8.81c-.06.25-4.44 2.9-6.5 2.52l-.84-.16s3.06-11.22 4.01-11.17z" fill="#074ea3"/><path d="m9.34 13.28a5.81 5.81 0 0 1 -.14 1.13c-.32 1.41-.82 2.87-.29 4.3a23 23 0 0 0 1.62 3.21 2.62 2.62 0 0 0 .57 0l.84-.16s-1.4-5.17-2.6-8.48z" fill="#00547a" opacity=".52"/><path d="m18.48 21.85a5.19 5.19 0 0 0 .4-2.07c-.05-1.44-.06-2.87 0-4.31 0-.62 0-1.22.06-1.81-1.17 3.31-2.47 8.07-2.47 8.07l.84.16a3.52 3.52 0 0 0 1.17-.04z" fill="#00547a" opacity=".52"/><path d="m10.61 38.44s-2.28 2.72-2.55 3.29.38 1.31 1.27 1 1.41-.9 1.42-1.29.49-.59.7-.62 1.39-1.38 1.27-1.75-.71-.77-.71-.77z"/><path d="m17.43 38.44a39.94 39.94 0 0 1 2.57 3.29c.27.58-.38 1.31-1.27 1s-1.41-.9-1.42-1.29-.49-.59-.7-.62-1.39-1.38-1.27-1.75.71-.77.71-.77z"/><path d="m11.41 24.87c-.28-.64-.33-2-2.16-2-3.52 0-2.7 2.82-2.65 3.25a110.66 110.66 0 0 0 3.09 12.58h3.53s-1.28-10.28-1.48-11.86a12 12 0 0 0 -.33-1.97z" fill="#fbb040"/><path d="m16.63 24.87c.28-.64.33-2 2.16-2 3.53 0 2.7 2.82 2.65 3.25a110.66 110.66 0 0 1 -3.09 12.58h-3.53s1.28-10.28 1.48-11.86a12 12 0 0 1 .33-1.97z" fill="#fbb040"/><path d="m9.01 21.82h10.36v.61h-10.36z"/><path d="m20.9 14.64h-13.41a.62.62 0 0 0 -.6.81c.12.8 1.82 6.45 2.16 6.45h10.3c.29 0 2-5.65 2.15-6.45a.62.62 0 0 0 -.6-.81z" fill="#2d2d2d"/><path d="m14.75 18.55a.56.56 0 1 1 -.55-.55.55.55 0 0 1 .55.55z" fill="#d0d1de"/><g fill="#ffbe83"><path d="m8.38 55.09 1.02 3.13h3.3l-2.67 1.93 1.02 3.13-2.67-1.93-2.66 1.93 1.02-3.13-2.66-1.93h3.29z"/><path d="m20.15 55.09 1.02 3.13h3.29l-2.66 1.93 1.01 3.13-2.66-1.93-2.67 1.93 1.02-3.13-2.66-1.93h3.29z"/><path d="m31.91 49.9 1.66 5.11h5.38l-4.35 3.16 1.66 5.11-4.35-3.15-4.34 3.15 1.66-5.11-4.35-3.16h5.37z"/><path d="m43.68 55.09 1.01 3.13h3.3l-2.67 1.93 1.02 3.13-2.66-1.93-2.67 1.93 1.02-3.13-2.66-1.93h3.29z"/><path d="m55.44 55.09 1.02 3.13h3.29l-2.66 1.93 1.01 3.13-2.66-1.93-2.66 1.93 1.01-3.13-2.66-1.93h3.29z"/></g></svg>