<svg fill="none" height="24" viewBox="0 0 24 24" width="24" xmlns="http://www.w3.org/2000/svg" xmlns:xlink="http://www.w3.org/1999/xlink"><clipPath id="a"><path d="m0 0h24v24h-24z"/></clipPath><g clip-path="url(#a)"><path clip-rule="evenodd" d="m0 12.067c0 5.966 4.333 10.927 10 11.933v-8.667h-3v-3.333h3v-2.667c0-3 1.933-4.666 4.667-4.666.866 0 1.8.133 2.666.266v3.067h-1.533c-1.467 0-1.8.733-1.8 1.667v2.333h3.2l-.533 3.333h-2.667v8.667c5.667-1.006 10-5.966 10-11.933 0-6.637-5.4-12.067-12-12.067s-12 5.43-12 12.067z" fill="#555" fill-rule="evenodd"/></g></svg>