<svg fill="none" height="24" viewBox="0 0 24 24" width="24" xmlns="http://www.w3.org/2000/svg"><path clip-rule="evenodd" d="m7.465 1.066c1.173-.054 1.547-.066 4.535-.066s3.362.013 4.534.066 1.972.24 2.672.511c.733.277 1.398.71 1.948 1.27.56.549.992 1.213 1.268 1.947.272.7.458 1.5.512 2.67.054 1.175.066 1.549.066 4.536 0 2.988-.013 3.362-.066 4.535-.053 1.17-.24 1.97-.512 2.67-.276.7341-.7087 1.3992-1.268 1.949-.55.56-1.215.992-1.948 1.268-.7.272-1.5.458-2.67.512-1.174.054-1.548.066-4.536.066s-3.362-.013-4.535-.066c-1.17-.053-1.97-.24-2.67-.512-.73408-.276-1.39918-.7087-1.949-1.268-.55962-.5493-.99269-1.2141-1.269-1.948-.271-.7-.457-1.5-.511-2.67-.054-1.175-.066-1.549-.066-4.536 0-2.988.013-3.362.066-4.534s.24-1.972.511-2.672c.27672-.73392.71012-1.39869 1.27-1.948.54904-.5595 1.21347-.99256 1.947-1.269.7-.271 1.5-.457 2.67-.511zm8.98 1.98c-1.16-.053-1.508-.064-4.445-.064s-3.285.011-4.445.064c-1.073.049-1.655.228-2.043.379-.513.2-.88.437-1.265.822-.36495.35505-.64582.78728-.822 1.265-.151.388-.33.97-.379 2.043-.053 1.16-.064 1.508-.064 4.445s.011 3.285.064 4.445c.049 1.073.228 1.655.379 2.043.176.477.457.91.822 1.265.355.365.788.646 1.265.822.388.151.97.33 2.043.379 1.16.053 1.507.064 4.445.064s3.285-.011 4.445-.064c1.073-.049 1.655-.228 2.043-.379.513-.2.88-.437 1.265-.822.365-.355.646-.788.822-1.265.151-.388.33-.97.379-2.043.053-1.16.064-1.508.064-4.445s-.011-3.285-.064-4.445c-.049-1.073-.228-1.655-.379-2.043-.2-.513-.437-.88-.822-1.265-.3551-.36493-.7873-.64579-1.265-.822-.388-.151-.97-.33-2.043-.379zm-5.85 12.345c.7847.3266 1.6584.3707 2.4719.1247.8136-.246 1.5165-.7668 1.9887-1.4735.4722-.7066.6845-1.5553.6004-2.4011-.084-.8458-.459-1.6361-1.061-2.2361-.3838-.38352-.8478-.67719-1.3587-.85985-.5108-.18267-1.0559-.24979-1.5958-.19653-.5399.05325-1.0613.22556-1.5267.50451-.46534.27895-.86306.65761-1.1645 1.10872-.30144.45115-.49911.96345-.57878 1.50015-.07968.5366-.03937 1.0843.11802 1.6035s.42794.9971.79218 1.3992.81308.7185 1.31428.9263zm-2.593-7.389c.52502-.52502 1.14832-.9415 1.8343-1.22564.686-.28414 1.4212-.43039 2.1637-.43039s1.4777.14625 2.1637.43039 1.3093.70062 1.8343 1.22564.9415 1.14832 1.2256 1.8343c.2842.686.4304 1.4212.4304 2.1637s-.1462 1.4777-.4304 2.1637c-.2841.686-.7006 1.3093-1.2256 1.8343-1.0603 1.0603-2.4985 1.656-3.998 1.656s-2.93766-.5957-3.998-1.656-1.65603-2.4985-1.65603-3.998.59569-2.93766 1.65603-3.998zm10.906-.814c.1301-.12273.2343-.27032.3063-.43403.072-.1637.1105-.3402.1131-.51904s-.0307-.35638-.0979-.52212c-.0673-.16574-.1671-.3163-.2935-.44277-.1265-.12647-.2771-.22628-.4428-.29352s-.3433-.10054-.5221-.09794c-.1789.00261-.3554.04107-.5191.11312-.1637.07204-.3113.1762-.434.3063-.2387.25303-.3694.58912-.3643.93693s.1455.67995.3915.92591c.2459.24597.5781.38639.9259.39146s.6839-.12561.9369-.3643z" fill="#555" fill-rule="evenodd"/></svg>