<svg fill="none" height="24" viewBox="0 0 24 24" width="24" xmlns="http://www.w3.org/2000/svg"><path clip-rule="evenodd" d="m1 2.838c0-.48747.19365-.95497.53834-1.29966s.81219-.53834 1.29966-.53834h18.322c.2416-.000392.4809.04687.7041.13907.2233.0922.4262.22754.5971.39827.171.17073.3065.37349.399.59667.0924.22319.1399.46242.1398.70399v18.322c.0003.2416-.0471.4809-.1394.7042s-.2278.4262-.3986.5971-.3736.3065-.5969.3989c-.2232.0924-.4625.1399-.7041.1398h-18.323c-.24145 0-.48054-.0476-.7036-.14s-.42573-.2279-.59642-.3987c-.17068-.1708-.30605-.3735-.39836-.5966s-.139751-.4622-.13962-.7037zm8.708 6.55h2.979v1.496c.43-.86 1.53-1.634 3.183-1.634 3.169 0 3.92 1.713 3.92 4.856v5.822h-3.207v-5.106c0-1.79-.43-2.8-1.522-2.8-1.515 0-2.145 1.089-2.145 2.8v5.106h-3.208zm-5.5 10.403h3.208v-10.541h-3.208v10.54zm3.667-13.979c.00605.27467-.04283.54779-.14376.80332-.10093.25552-.25189.48832-.44401.68471-.19212.1964-.42153.35245-.67477.45898-.25325.10653-.52522.16141-.79996.16141s-.54671-.05488-.79995-.16141c-.25325-.10653-.48266-.26258-.67478-.45898-.19212-.19639-.34308-.42919-.44401-.68471-.10093-.25553-.14981-.52865-.14376-.80332.01187-.53914.23439-1.05221.61989-1.42931.3855-.37711.90333-.58827 1.44261-.58827s1.05711.21116 1.44262.58827c.3855.3771.60801.89017.61988 1.42931z" fill="#555" fill-rule="evenodd"/></svg>