<svg fill="none" height="24" viewBox="0 0 24 24" width="24" xmlns="http://www.w3.org/2000/svg"><path d="m19.321 5.562c-.1519-.07855-.2998-.16466-.443-.258-.4164-.27528-.7981-.5996-1.137-.966-.849-.971-1.166-1.956-1.282-2.645h.004c-.097-.573-.057-.943-.05-.943h-3.865v14.943c0 .2 0 .399-.008.595 0 .024-.003.046-.004.073 0 .01 0 .022-.003.033v.009c-.0406.536-.2123 1.0538-.5001 1.5079-.2877.4541-.6826.8305-1.1499 1.0961-.4876.2774-1.0391.4228-1.60005.422-1.8 0-3.26-1.468-3.26-3.281 0-1.814 1.46-3.282 3.26-3.282.341 0 .68.054 1.00405.16l.005-3.936c-.98404-.12695-1.98365-.04853-2.93581.2303-.95215.27883-1.83617.752-2.59624 1.3897-.66614.5785-1.22621 1.2689-1.655 2.04-.163.281-.779 1.412-.853 3.246-.047 1.04.266 2.12.415 2.565v.01c.093.262.457 1.158 1.049 1.913.4774.606 1.04145 1.1384 1.674 1.58v-.01l.009.01c1.87 1.27 3.945 1.187 3.945 1.187.359-.015 1.56205 0 2.92805-.647 1.515-.718 2.377-1.787 2.377-1.787.5511-.6389.9893-1.367 1.296-2.153.35-.92.466-2.022.466-2.462v-7.929c.047.028.672.441.672.441s.9.577 2.303.952c1.006.267 2.363.324 2.363.324v-3.837c-.475.052-1.44-.098-2.429-.59z" fill="#555"/></svg>