<svg fill="none" height="24" viewBox="0 0 24 24" width="24" xmlns="http://www.w3.org/2000/svg" xmlns:xlink="http://www.w3.org/1999/xlink"><clipPath id="a"><path d="m0 0h24v24h-24z"/></clipPath><g clip-path="url(#a)"><path d="m23.643 4.93659c-.835.37-1.732.62-2.675.733.973-.58221 1.701-1.49854 2.048-2.578-.9141.54299-1.9146.92519-2.958 1.13-.7016-.74914-1.6309-1.24568-2.6437-1.41253-1.0127-.16685-2.0522.00532-2.9571.48978-.9048.48446-1.6244 1.25411-2.047 2.18945-.4227.93534-.5247 1.98405-.2902 2.9833-1.8523-.09301-3.66436-.57445-5.31856-1.4131-1.65421-.83864-3.11359-2.01574-4.28343-3.4549-.4.69-.63 1.49-.63 2.342-.00044.76699.18843 1.52224.54988 2.19873s.88428 1.25331 1.52212 1.67927c-.73972-.02354-1.46313-.22342-2.11-.583v.06c-.00007 1.07571.37203 2.11841 1.05318 2.95101s1.62939 1.4039 2.68382 1.617c-.68621.1857-1.40566.2131-2.104.08.2975.9256.877 1.735 1.65737 2.3149s1.72255.9013 2.69463.9191c-1.65016 1.2954-3.68811 1.9981-5.786 1.995-.37162.0001-.74292-.0216-1.111998-.065 2.129478 1.3692 4.608338 2.0958 7.139998 2.093 8.56999 0 13.25499-7.098 13.25499-13.25401 0-.2-.005-.402-.014-.602.9113-.65903 1.6979-1.47511 2.323-2.41z" fill="#555"/></g></svg>